<?xml version="1.0" standalone="no"?>
<!DOCTYPE svg PUBLIC "-//W3C//DTD SVG 20010904//EN"
 "http://www.w3.org/TR/2001/REC-SVG-20010904/DTD/svg10.dtd">
<svg version="1.0" xmlns="http://www.w3.org/2000/svg"
 width="1024.000000pt" height="1024.000000pt" viewBox="0 0 1024.000000 1024.000000"
 preserveAspectRatio="xMidYMid meet">

<g transform="translate(0.000000,1024.000000) scale(0.100000,-0.100000)"
fill="#000000" stroke="none">
<path d="M3845 6750 c-74 -29 -170 -106 -299 -241 l-115 -120 -293 91 c-161
50 -306 95 -322 101 -78 25 -136 -10 -136 -82 0 -50 -8 -42 266 -265 131 -108
201 -171 196 -178 -4 -7 -63 -74 -131 -149 -109 -120 -127 -135 -144 -125 -11
5 -46 11 -79 11 -52 2 -63 -1 -79 -22 -35 -43 -26 -65 70 -157 49 -47 107
-111 127 -142 77 -115 101 -125 167 -71 45 37 48 70 13 146 l-25 52 152 144
151 144 70 -91 c38 -50 122 -162 188 -248 118 -158 139 -178 178 -178 29 0 80
53 80 82 0 13 -43 172 -95 353 l-94 329 108 111 c171 177 245 297 245 403 1
59 -1 66 -32 93 -39 35 -91 38 -167 9z"/>
<path d="M2266 6319 c-202 -26 -403 -107 -586 -237 -96 -67 -267 -244 -332
-342 -162 -245 -232 -474 -231 -755 0 -165 19 -286 69 -435 146 -438 512 -776
960 -889 190 -47 443 -52 629 -12 475 103 849 434 1000 886 61 181 85 398 65
585 -7 63 -13 116 -13 116 -1 1 -35 4 -75 6 -62 5 -72 3 -67 -10 3 -8 8 -53
12 -101 l6 -86 -279 3 -279 3 -2 67 c-2 37 -5 94 -8 128 l-6 61 -46 -24 c-26
-13 -56 -23 -68 -23 -20 0 -21 -3 -14 -57 4 -32 8 -79 8 -105 l1 -48 -230 0
-230 0 0 175 c0 96 4 175 9 175 23 0 182 31 207 40 l27 11 -52 53 c-51 52 -53
53 -94 45 -23 -4 -54 -8 -69 -9 l-28 0 0 323 0 324 97 -13 c94 -13 230 -47
266 -65 43 -24 7 14 -102 103 l-118 96 -89 11 c-102 13 -238 12 -338 0z m104
-777 c-46 -3 -245 21 -312 39 l-37 9 29 83 c40 117 56 152 110 242 62 103 117
166 189 214 l56 39 5 -312 5 -311 -45 -3z m-234 567 c-25 -28 -66 -84 -92
-125 -47 -76 -129 -264 -140 -321 -4 -19 -12 -33 -21 -33 -26 0 -207 71 -272
107 l-63 35 63 65 c132 134 309 246 474 299 39 13 76 23 83 24 8 0 -7 -23 -32
-51z m-556 -506 c58 -28 141 -64 185 -79 44 -15 83 -30 87 -33 4 -3 0 -49 -8
-101 -7 -52 -17 -150 -20 -217 l-7 -123 -280 0 -280 0 7 75 c8 92 34 194 75
300 33 85 118 238 129 233 4 -2 54 -26 112 -55z m580 -177 c58 -8 139 -18 180
-21 l75 -6 0 -175 0 -174 -233 0 -232 0 5 53 c2 28 7 93 10 142 3 50 10 118
16 151 l11 62 31 -8 c18 -5 79 -16 137 -24z m-335 -603 c3 -49 13 -146 21
-216 9 -71 14 -130 12 -131 -2 -1 -34 -15 -73 -31 -38 -16 -124 -59 -189 -97
-109 -62 -120 -66 -132 -50 -33 44 -116 216 -143 297 -29 86 -61 240 -61 291
l0 24 279 0 279 0 7 -87z m590 -77 l0 -164 -85 -7 c-87 -7 -293 -39 -321 -50
-14 -5 -18 7 -28 72 -7 43 -15 131 -18 196 l-6 117 229 0 229 0 0 -164z m590
62 c-7 -100 -30 -276 -37 -283 -1 -2 -41 5 -88 16 -47 10 -140 24 -207 30
l-123 12 0 164 0 163 231 0 232 0 -8 -102z m691 26 c-14 -156 -78 -347 -162
-488 l-39 -65 -30 20 c-67 43 -205 115 -280 146 -59 24 -80 37 -79 50 1 10 8
74 18 141 9 68 16 157 16 198 l0 74 281 0 282 0 -7 -76z m-1283 -712 c1 -177
0 -322 -3 -322 -16 0 -81 49 -130 98 -104 105 -182 242 -233 409 l-25 82 66
15 c87 19 282 45 315 42 4 -1 9 -146 10 -324z m357 302 c114 -18 170 -32 170
-43 0 -17 -72 -215 -92 -256 -57 -112 -161 -237 -245 -296 -23 -16 -44 -29
-47 -29 -3 0 -6 146 -6 324 l0 324 63 -5 c34 -3 105 -11 157 -19z m-870 -90
c0 -26 60 -193 92 -259 40 -79 107 -180 156 -232 22 -24 34 -43 27 -43 -27 0
-193 63 -269 103 -43 22 -106 61 -140 86 -64 47 -196 169 -196 182 0 12 129
90 225 135 103 49 105 50 105 28z m1345 -63 c39 -21 92 -51 118 -68 l48 -29
-86 -82 c-130 -125 -280 -215 -457 -273 -49 -16 -92 -29 -95 -29 -3 0 14 21
39 48 97 104 181 256 233 425 l27 86 52 -20 c28 -11 83 -37 121 -58z"/>
<path d="M4460 6220 l0 -100 155 0 155 0 0 -480 0 -480 115 0 115 0 0 480 0
480 163 0 162 0 0 100 0 100 -432 0 -433 0 0 -100z"/>
<path d="M8860 5740 l0 -580 110 0 110 0 0 580 0 580 -110 0 -110 0 0 -580z"/>
<path d="M6273 6036 c-68 -16 -149 -53 -200 -92 l-33 -25 42 -67 c23 -37 42
-68 43 -69 0 -1 29 12 64 29 51 26 78 32 146 36 109 6 163 -17 194 -82 41 -84
43 -83 -136 -88 -191 -5 -250 -23 -324 -97 -52 -51 -69 -95 -69 -182 0 -152
123 -251 311 -250 88 0 154 21 207 66 22 19 43 35 46 35 3 0 6 -20 6 -45 l0
-45 95 0 95 0 0 298 c0 318 -7 377 -52 450 -66 107 -266 166 -435 128z m279
-546 c-8 -108 -77 -180 -181 -188 -72 -5 -123 15 -151 60 -36 58 -7 132 65
164 21 9 66 13 150 11 l120 -2 -3 -45z"/>
<path d="M8171 6040 c-24 -5 -72 -23 -107 -39 -165 -77 -243 -225 -231 -441
10 -204 108 -336 290 -391 56 -18 87 -20 185 -17 103 3 124 7 174 31 32 16 79
48 105 72 l48 43 -54 56 -54 55 -33 -25 c-74 -57 -201 -80 -294 -54 -75 21
-149 112 -150 183 l0 27 305 0 305 0 0 88 c0 204 -78 332 -238 392 -63 24
-186 34 -251 20z m166 -175 c64 -27 102 -77 116 -152 l7 -33 -206 0 -206 0 7
33 c26 128 162 202 282 152z"/>
<path d="M5745 6021 c-40 -18 -103 -78 -123 -115 -8 -16 -11 -7 -17 47 l-7 67
-99 0 -99 0 0 -430 0 -430 110 0 110 0 0 223 c0 168 4 237 15 282 30 113 91
160 208 160 l67 0 0 108 0 107 -62 0 c-40 0 -78 -7 -103 -19z"/>
<path d="M6862 6011 c2 -4 77 -198 167 -430 l164 -421 116 0 116 0 162 413
c89 226 165 420 169 430 6 16 -4 17 -114 17 l-120 0 -104 -315 c-56 -173 -105
-314 -108 -315 -3 0 -48 132 -100 293 -51 160 -98 302 -104 315 -9 21 -14 22
-128 22 -66 0 -118 -4 -116 -9z"/>
<path d="M4666 4808 c-3 -46 -10 -272 -16 -503 -6 -231 -13 -455 -16 -497 l-5
-78 109 0 110 0 6 238 c4 130 10 316 14 412 l7 175 71 -145 c40 -80 110 -224
157 -320 l85 -175 87 5 88 5 144 300 c80 165 149 304 154 309 5 6 9 -90 9
-245 0 -141 3 -324 7 -407 l6 -152 113 0 114 0 -5 43 c-3 23 -12 247 -20 497
-8 250 -18 492 -21 538 l-6 83 -125 -3 -126 -3 -161 -342 c-88 -188 -164 -342
-167 -343 -3 0 -80 155 -169 345 l-164 345 -137 0 -137 0 -6 -82z"/>
<path d="M7120 4710 l0 -120 -62 0 -63 0 3 -85 3 -85 59 0 59 0 3 -267 c3
-260 4 -270 27 -317 46 -91 145 -134 286 -123 86 7 137 25 130 47 -2 8 -9 45
-15 82 l-12 66 -31 -9 c-58 -17 -95 -11 -129 20 l-33 29 -3 236 -3 236 110 0
111 0 0 85 0 85 -110 0 -110 0 0 120 0 120 -110 0 -110 0 0 -120z"/>
<path d="M6394 4611 c-91 -15 -177 -49 -241 -97 l-32 -25 40 -67 c23 -37 42
-68 44 -70 1 -1 33 12 71 30 63 30 77 33 164 33 84 0 99 -3 129 -24 18 -13 42
-42 52 -65 34 -76 38 -73 -138 -78 -171 -5 -226 -17 -294 -67 -78 -55 -114
-146 -99 -252 12 -86 48 -134 134 -178 121 -63 280 -53 380 23 l44 35 7 -40 7
-39 94 0 94 0 0 293 c0 322 -7 378 -58 452 -70 102 -241 160 -398 136z m251
-548 c-14 -97 -64 -167 -133 -188 -41 -12 -120 -7 -157 11 -67 32 -85 111 -37
164 40 46 90 59 220 60 l113 0 -6 -47z"/>
<path d="M8043 4609 c-175 -29 -301 -136 -351 -299 -23 -78 -23 -237 2 -313
39 -118 131 -214 251 -259 51 -20 79 -23 186 -23 124 0 126 0 200 37 40 20 90
53 109 72 l34 36 -53 54 -53 53 -56 -33 c-90 -54 -163 -67 -257 -43 -79 20
-164 116 -165 187 l0 22 306 0 307 0 -5 113 c-6 134 -29 202 -89 271 -88 100
-228 148 -366 125z m165 -196 c44 -25 74 -71 85 -130 l7 -33 -204 0 -204 0 10
38 c15 55 45 98 85 123 70 44 147 44 221 2z"/>
</g>
</svg>
