<?xml version="1.0" encoding="UTF-8"?>
<svg version="1.1" xmlns="http://www.w3.org/2000/svg" width="500" height="500">
<path d="M0 0 C165 0 330 0 500 0 C500 165 500 330 500 500 C335 500 170 500 0 500 C0 335 0 170 0 0 Z " fill="#FEFEFE" transform="translate(0,0)"/>
<path d="M0 0 C0.83789062 0.2784375 1.67578125 0.556875 2.5390625 0.84375 C17.12088576 6.08056578 29.20309297 17.41982556 36.5625 30.91796875 C38.84120151 35.80355433 40.52177139 40.8216091 42 46 C42.33 45.67 42.66 45.34 43 45 C44.99964982 44.91241997 47.0023611 44.89303424 49.00390625 44.90234375 C50.21884766 44.90556641 51.43378906 44.90878906 52.68554688 44.91210938 C53.96494141 44.92048828 55.24433594 44.92886719 56.5625 44.9375 C57.84576172 44.94201172 59.12902344 44.94652344 60.45117188 44.95117188 C63.63416022 44.96300455 66.81705762 44.97948932 70 45 C70 46.98 70 48.96 70 51 C70.928125 51 71.85625 51 72.8125 51 C79 51 79 51 81.5625 51.5625 C83.99764861 52.25042261 83.99764861 52.25042261 86 51 C91.65873983 50.41149106 96.17639822 50.70583293 101 54 C103.6875655 57.71703974 103.22571269 61.86512443 103.125 66.25 C103.11597656 66.99507813 103.10695313 67.74015625 103.09765625 68.5078125 C103.07418358 70.33868059 103.03831525 72.16938238 103 74 C99.66666667 74 96.33333333 74 93 74 C91.700625 74.0825 90.40125 74.165 89.0625 74.25 C86.01854715 74.23878839 85.14921605 74.09699043 82.5 72.375 C80.55594168 69.29690766 80.391324 67.57597151 81 64 C83.1956044 61.84468192 84.50048385 61.0567632 87.578125 60.70703125 C88.45984375 60.74183594 89.3415625 60.77664062 90.25 60.8125 C91.58804688 60.85310547 91.58804688 60.85310547 92.953125 60.89453125 C93.62859375 60.92933594 94.3040625 60.96414062 95 61 C94.34 60.01 93.68 59.02 93 58 C89.58410104 57.70928519 87.26157733 57.91280756 84 59 C83.67 58.67 83.34 58.34 83 58 C80.03 58.99 80.03 58.99 77 60 C76.67 64.62 76.34 69.24 76 74 C73.36 74 70.72 74 68 74 C68 66.74 68 59.48 68 52 C65.69 52 63.38 52 61 52 C61 59.26 61 66.52 61 74 C58.03 74 55.06 74 52 74 C52 66.74 52 59.48 52 52 C49.03 52 46.06 52 43 52 C43.10441406 53.77890625 43.10441406 53.77890625 43.2109375 55.59375 C43.68504895 67.45515643 41.86052172 76.22876074 37 87 C36.505 88.485 36.505 88.485 36 90 C36.66 90.556875 37.32 91.11375 38 91.6875 C40 94 40 94 40.5 96.5 C40 99 40 99 37.94140625 100.75390625 C35.67731175 102.89106783 35.67731175 102.89106783 35.93359375 106.05859375 C36.18302734 107.73115234 36.18302734 107.73115234 36.4375 109.4375 C37.30878518 115.35812293 37.30878518 115.35812293 35.66015625 118.78515625 C34 121 34 121 32 123 C30.0625 122.9375 30.0625 122.9375 28 122 C25 117.82142857 25 117.82142857 25 115 C23.9275 115.226875 22.855 115.45375 21.75 115.6875 C18 116 18 116 15.765625 114.51953125 C15.18296875 114.01808594 14.6003125 113.51664062 14 113 C13.18015625 113.40992188 12.3603125 113.81984375 11.515625 114.2421875 C6.7578125 116.62109375 6.7578125 116.62109375 2 119 C1.33484375 119.37382812 0.6696875 119.74765625 -0.015625 120.1328125 C-6.12695163 122.80351036 -13.2101694 122.21786324 -19.75 122.25 C-21.30074219 122.2809375 -21.30074219 122.2809375 -22.8828125 122.3125 C-40.01864929 122.39882663 -53.75989303 114.42769996 -66.1171875 103.05078125 C-77.38235088 91.5445346 -82.89058756 75.53138776 -83.4375 59.6875 C-82.96770923 41.42203475 -76.13789402 26.1405642 -63.06298828 13.42138672 C-46.40235441 -1.96612776 -21.50722228 -7.87015074 0 0 Z " fill="#272727" transform="translate(201,166)"/>
<path d="M0 0 C4.29189011 2.78972857 7.40339572 6.10264388 9 11 C9.15679577 13.28866815 9.25566104 15.58167138 9.3125 17.875 C9.58315014 24.22174588 10.98504556 27.56408729 15.11328125 32.328125 C18.56033582 35.38265783 21.286707 36.29105938 25.875 36.3125 C26.69742188 36.32925781 27.51984375 36.34601563 28.3671875 36.36328125 C35.77066465 35.34173322 39.8274371 30.39402609 44.5 25.11914062 C47.14147353 22.30225674 48.46524637 21.05756029 52.375 20.63671875 C53.24125 20.75660156 54.1075 20.87648437 55 21 C55 24 55 24 52.5 26.6875 C51.675 27.450625 50.85 28.21375 50 29 C54.22104999 26.27809315 54.22104999 26.27809315 58 23 C59.28583984 24.03060547 59.28583984 24.03060547 60.59765625 25.08203125 C61.75228511 25.99259222 62.90725117 26.90272573 64.0625 27.8125 C64.62388672 28.26431641 65.18527344 28.71613281 65.76367188 29.18164062 C71.3875742 33.58435273 76.80409158 36.12245019 84 37 C86.01167675 42.78357065 86.22084624 47.90218999 86 54 C84.515 53.505 84.515 53.505 83 53 C81.52413385 52.88312662 80.04293388 52.82498258 78.5625 52.8125 C77.80066406 52.79832031 77.03882813 52.78414062 76.25390625 52.76953125 C72.15123146 53.18904219 70.41757223 54.5395644 67.640625 57.6015625 C66.85171875 58.59929687 66.0628125 59.59703125 65.25 60.625 C64.45078125 61.62789062 63.6515625 62.63078125 62.828125 63.6640625 C62.22484375 64.43492187 61.6215625 65.20578125 61 66 C59.02 65.67 57.04 65.34 55 65 C55.37125 63.63875 55.37125 63.63875 55.75 62.25 C56.33879744 58.96521177 56.33879744 58.96521177 54.375 56.5625 C52.12572477 54.77099312 52.12572477 54.77099312 49.5 55 C46.5862608 56.16549568 45.12410979 57.72939988 43 60 C42.34 60 41.68 60 41 60 C40.34 59.01 39.68 58.02 39 57 C38.67 57.33 38.34 57.66 38 58 C36.56565414 58.15710888 35.12702756 58.27604721 33.6875 58.375 C29.96778998 58.73630941 27.72836252 59.27163748 25 62 C25.03093173 64.41585574 25.03093173 64.41585574 26 67 C28.96707046 68.85916824 28.96707046 68.85916824 32 70 C31.95875 71.11375 31.9175 72.2275 31.875 73.375 C31.58878141 77.04366025 31.58878141 77.04366025 34 79 C38.50317123 78.64736215 38.50317123 78.64736215 42 76 C44.61580479 76.3269756 46.64078137 76.82039068 49 78 C47.38118643 81.66408878 45.1279774 84.57333044 42.625 87.6875 C41.85414063 88.66074219 41.08328125 89.63398438 40.2890625 90.63671875 C38.02966553 92.96937262 37.16084708 93.73604617 34 94 C32.7315625 93.9071875 32.7315625 93.9071875 31.4375 93.8125 C30.633125 93.874375 29.82875 93.93625 29 94 C27.33700306 95.9619141 27.33700306 95.9619141 26 98 C26.86625 98.84304688 27.7325 99.68609375 28.625 100.5546875 C29.75026041 101.66119357 30.87524628 102.76797888 32 103.875 C32.57234375 104.43058594 33.1446875 104.98617187 33.734375 105.55859375 C35.19450782 107.00134404 36.60149298 108.4974374 38 110 C38 110.66 38 111.32 38 112 C26.90432159 115.69855947 12.46493351 113.44932935 2 109 C0.97519531 108.57589844 -0.04960937 108.15179688 -1.10546875 107.71484375 C-8.56826996 104.31922191 -14.21088509 99.76349935 -20 94 C-19.51402344 93.15566406 -19.02804688 92.31132812 -18.52734375 91.44140625 C-16.42392912 86.70199886 -16.58732357 82.46166748 -16.50390625 77.33984375 C-15.89101219 73.27763894 -15.10302366 71.69421261 -12 69 C-9.21218224 68.38439356 -6.87179508 68.03377511 -4.0625 67.875 C0.9438233 67.5354327 4.88715548 67.13731214 9 64 C10.22691067 61.54617866 10.20175931 59.80015897 10.25 57.0625 C10.27578125 56.18722656 10.3015625 55.31195313 10.328125 54.41015625 C10.17215528 51.98869539 10.17215528 51.98869539 8.84375 50.2109375 C6.28299743 48.5290873 4.29419821 48.62817433 1.25 48.5625 C-4.35095699 48.22345902 -7.53238812 47.39926991 -12 44 C-14.65244891 40.6556079 -14.15899009 37.13374247 -14 33 C-10.535 32.505 -10.535 32.505 -7 32 C-7 31.34 -7 30.68 -7 30 C-8.65 30 -10.3 30 -12 30 C-11.95359375 29.26394531 -11.9071875 28.52789062 -11.859375 27.76953125 C-11.53725008 21.5911412 -11.53725008 21.5911412 -13.8125 16 C-14.534375 15.34 -15.25625 14.68 -16 14 C-17.00358634 13.00359925 -18.00428872 12.0042704 -19 11 C-6.5631261 -2.48623514 -6.5631261 -2.48623514 0 0 Z " fill="#FAFAFA" transform="translate(156,173)"/>
<path d="M0 0 C1.84375 0.80078125 1.84375 0.80078125 3.09375 2.67578125 C3.84375 4.80078125 3.84375 4.80078125 3.84375 7.80078125 C1.86375 8.79078125 1.86375 8.79078125 -0.15625 9.80078125 C2.48375 11.12078125 5.12375 12.44078125 7.84375 13.80078125 C7.51375 15.12078125 7.18375 16.44078125 6.84375 17.80078125 C11.06582613 13.64791948 15.0498011 9.31893142 19.00195312 4.91015625 C23.52135976 -0.07677521 23.52135976 -0.07677521 28.21875 -0.51171875 C31.84375 -0.19921875 31.84375 -0.19921875 34.28125 1.42578125 C36.31448755 4.51630233 36.36415677 6.15793386 35.84375 9.80078125 C33.78904052 13.93688475 31.30069843 16.32078181 27.65625 19.11328125 C26.75519531 19.81066406 25.85414063 20.50804687 24.92578125 21.2265625 C24.23871094 21.74605469 23.55164063 22.26554687 22.84375 22.80078125 C26.28469186 21.48831587 28.97915882 20.13489258 31.84375 17.80078125 C31.36050181 22.95542859 28.65764239 26.61628444 25.84375 30.80078125 C25.18375 30.47078125 24.52375 30.14078125 23.84375 29.80078125 C24.33875 33.76078125 24.33875 33.76078125 24.84375 37.80078125 C25.50375 37.80078125 26.16375 37.80078125 26.84375 37.80078125 C26.51375 36.15078125 26.18375 34.50078125 25.84375 32.80078125 C27.16375 32.14078125 28.48375 31.48078125 29.84375 30.80078125 C31.34375 32.11328125 31.34375 32.11328125 32.84375 33.80078125 C32.84375 34.79078125 32.84375 35.78078125 32.84375 36.80078125 C33.50375 37.13078125 34.16375 37.46078125 34.84375 37.80078125 C34.17472656 38.32800781 33.50570312 38.85523438 32.81640625 39.3984375 C30.5314193 41.67688207 30.5314193 41.67688207 30.77734375 44.859375 C30.94363281 45.97441406 31.10992187 47.08945312 31.28125 48.23828125 C32.15253518 54.15890418 32.15253518 54.15890418 30.50390625 57.5859375 C28.84375 59.80078125 28.84375 59.80078125 26.84375 61.80078125 C24.90625 61.73828125 24.90625 61.73828125 22.84375 60.80078125 C19.84375 56.62220982 19.84375 56.62220982 19.84375 53.80078125 C18.77125 54.02765625 17.69875 54.25453125 16.59375 54.48828125 C12.84375 54.80078125 12.84375 54.80078125 10.609375 53.3203125 C10.02671875 52.81886719 9.4440625 52.31742187 8.84375 51.80078125 C8.02390625 52.21070313 7.2040625 52.620625 6.359375 53.04296875 C3.1875 54.62890625 0.015625 56.21484375 -3.15625 57.80078125 C-3.83042969 58.18105469 -4.50460938 58.56132812 -5.19921875 58.953125 C-12.67330254 62.19040281 -22.30601901 60.80523994 -30.15625 59.80078125 C-30.15625 59.47078125 -30.15625 59.14078125 -30.15625 58.80078125 C-24.21625 58.47078125 -18.27625 58.14078125 -12.15625 57.80078125 C-13.1875 56.62515625 -14.21875 55.44953125 -15.28125 54.23828125 C-18.59893301 50.4476088 -21.88449267 46.6311313 -25.15625 42.80078125 C-23.65625 40.80078125 -23.65625 40.80078125 -21.15625 38.80078125 C-19.90714844 38.89101563 -18.65804687 38.98125 -17.37109375 39.07421875 C-14.83262741 39.13772371 -13.5824565 39.102412 -11.49072266 37.62207031 C-9.94168535 35.96060698 -8.57167205 34.2502053 -7.21875 32.42578125 C-6.73857422 31.8225 -6.25839844 31.21921875 -5.76367188 30.59765625 C-4.04073701 28.41057391 -2.40456552 26.29741229 -1.15625 23.80078125 C-4.46809707 23.02946219 -4.46809707 23.02946219 -8.15625 22.80078125 C-9.51786311 23.76191991 -10.85480198 24.75962284 -12.15625 25.80078125 C-15.52661311 25.56004103 -16.74423021 25.21280104 -19.15625 22.80078125 C-18.78125 19.17578125 -18.78125 19.17578125 -18.15625 15.80078125 C-19.105 15.51203125 -20.05375 15.22328125 -21.03125 14.92578125 C-24.15625 13.80078125 -24.15625 13.80078125 -26.15625 11.80078125 C-26.00593885 8.86971375 -25.57594875 7.29042979 -23.65625 5.05078125 C-19.14477496 2.79504373 -14.13492313 2.80078125 -9.15625 2.80078125 C-9.15625 3.79078125 -9.15625 4.78078125 -9.15625 5.80078125 C-8.69734375 5.35605469 -8.2384375 4.91132813 -7.765625 4.453125 C-7.15203125 3.88722656 -6.5384375 3.32132813 -5.90625 2.73828125 C-5.30296875 2.16980469 -4.6996875 1.60132813 -4.078125 1.015625 C-2.15625 -0.19921875 -2.15625 -0.19921875 0 0 Z " fill="#191919" transform="translate(206.15625,227.19921875)"/>
<path d="M0 0 C0.63679688 0.43828125 1.27359375 0.8765625 1.9296875 1.328125 C10.04408882 7.53545504 16.84769612 18.36673571 20 28 C20 28.66 20 29.32 20 30 C10.84264167 29.41548777 4.35351271 24.72418078 -2.17578125 18.55078125 C-5.24532048 15.94134426 -7.33542546 15.09637102 -11.3671875 14.51171875 C-16.26351664 15.16982751 -17.9635036 17.21536434 -21.125 20.8125 C-29.02281751 29.4756099 -29.02281751 29.4756099 -34.0625 30.36328125 C-39.53470586 30.2198565 -43.26713827 29.78099678 -47.25 25.6875 C-49.04983207 22.92347218 -49.9156236 21.29067954 -50 18 C-48.5625 15.6875 -48.5625 15.6875 -47 14 C-48.98 14.99 -48.98 14.99 -51 16 C-51.07476562 15.31035156 -51.14953125 14.62070313 -51.2265625 13.91015625 C-52.22842858 6.74976044 -54.2412133 1.50953676 -59 -4 C-59.99 -4.66 -60.98 -5.32 -62 -6 C-61.67 -6.99 -61.34 -7.98 -61 -9 C-58.54656073 -9.91241087 -56.28314543 -10.59320518 -53.75 -11.1875 C-53.02925293 -11.36039551 -52.30850586 -11.53329102 -51.56591797 -11.71142578 C-32.86132375 -15.89779031 -15.39947033 -10.90996958 0 0 Z " fill="#F9F9F9" transform="translate(219,178)"/>
<path d="M0 0 C7 0 7 0 8.890625 1.79296875 C9.33921875 2.58316406 9.7878125 3.37335938 10.25 4.1875 C10.73210937 5.00734375 11.21421875 5.8271875 11.7109375 6.671875 C12.13632812 7.44015625 12.56171875 8.2084375 13 9 C13.61875 9.969375 14.2375 10.93875 14.875 11.9375 C16 14 16 14 16 16 C16.66 16 17.32 16 18 16 C18.26425781 15.29488281 18.52851563 14.58976563 18.80078125 13.86328125 C20.07497493 10.82098821 21.52188641 8.03467014 23.1875 5.1875 C23.73792969 4.21167969 24.28835938 3.23585937 24.85546875 2.23046875 C25.56316406 1.49441406 26.27085937 0.75835937 27 0 C29.31 0 31.62 0 34 0 C34.495 8.91 34.495 8.91 35 18 C35.99 17.34 36.98 16.68 38 16 C40.48046875 15.8046875 40.48046875 15.8046875 43.1875 15.875 C44.08855469 15.89304688 44.98960937 15.91109375 45.91796875 15.9296875 C46.60503906 15.95289063 47.29210937 15.97609375 48 16 C48 15.01 48 14.02 48 13 C46.1128125 12.9690625 46.1128125 12.9690625 44.1875 12.9375 C43.47980469 12.92589844 42.77210938 12.91429687 42.04296875 12.90234375 C39.79694539 12.91736783 39.79694539 12.91736783 37 14 C36.34 12.02 35.68 10.04 35 8 C40.00068836 5.94843554 44.65530118 5.3002197 50 6 C52.5625 7.5 52.5625 7.5 54 9 C54.33 8.34 54.66 7.68 55 7 C55.99 7 56.98 7 58 7 C58 5.02 58 3.04 58 1 C60.64 1 63.28 1 66 1 C66 2.98 66 4.96 66 7 C67.65 7 69.3 7 71 7 C71.495 8.98 71.495 8.98 72 11 C72.825 10.175 73.65 9.35 74.5 8.5 C77.0352806 6.39026295 78.75534985 5.60040684 82.0625 5.5 C87.32770731 6.16859775 89.61447945 7.61447945 93.3125 11.3125 C95 14 95 14 95 20 C89.72 20 84.44 20 79 20 C79.495 20.99 79.495 20.99 80 22 C80.68707031 21.95359375 81.37414062 21.9071875 82.08203125 21.859375 C83.43361328 21.80523437 83.43361328 21.80523437 84.8125 21.75 C85.70582031 21.70359375 86.59914063 21.6571875 87.51953125 21.609375 C90 22 90 22 91.82421875 24.015625 C92.21222656 24.67046875 92.60023438 25.3253125 93 26 C88.92160328 29.26271737 85.40676776 29.43965943 80.3828125 29.3046875 C77.36557823 28.91887722 75.36524635 27.89219708 73 26 C72.505 27.485 72.505 27.485 72 29 C70.39667209 29.08121924 68.79215974 29.13929134 67.1875 29.1875 C65.84751953 29.23970703 65.84751953 29.23970703 64.48046875 29.29296875 C62 29 62 29 60.23828125 27.67578125 C57.8871058 24.49390658 57.88804145 21.6208083 57.9375 17.8125 C57.94652344 16.91144531 57.95554687 16.01039063 57.96484375 15.08203125 C57.97644531 14.39496094 57.98804688 13.70789063 58 13 C57.34 13 56.68 13 56 13 C56 18.28 56 23.56 56 29 C53 29 50 29 47 29 C45.98099609 29.05220703 45.98099609 29.05220703 44.94140625 29.10546875 C44.15636719 29.13253906 43.37132812 29.15960938 42.5625 29.1875 C41.78003906 29.22230469 40.99757813 29.25710937 40.19140625 29.29296875 C37.50306645 28.93356503 36.68343446 28.06234254 35 26 C34.505 27.485 34.505 27.485 34 29 C31.36 29 28.72 29 26 29 C25.67 25.04 25.34 21.08 25 17 C23.02 19.97 21.04 22.94 19 26 C14 25 14 25 12.41796875 23.15234375 C11.27864583 21.1015625 10.13932292 19.05078125 9 17 C8.67 20.96 8.34 24.92 8 29 C5.36 29 2.72 29 0 29 C0 19.43 0 9.86 0 0 Z " fill="#0A0A0A" transform="translate(358,211)"/>
<path d="M0 0 C2.55390984 0.36484426 4.0891745 1.05944967 6.25 2.5 C8.82316677 6.17595253 8.48985693 9.63947027 8 14 C7.67 14.99 7.34 15.98 7 17 C6.18650244 24.48719174 6.18650244 24.48719174 9.25 31.0625 C14.69853699 34.90124197 18.60253567 35.30491793 25.22265625 35.55859375 C28 36 28 36 29.84765625 37.2890625 C31.85351345 40.26725048 31.48745995 43.58778037 31 47 C29.9375 49.5 29.9375 49.5 28 51 C23.74941713 51.46369995 20.64081664 51.33012265 17 49 C17.66 49.99 18.32 50.98 19 52 C18.31292969 52.10957031 17.62585938 52.21914062 16.91796875 52.33203125 C16.01691406 52.49058594 15.11585938 52.64914063 14.1875 52.8125 C13.29417969 52.96332031 12.40085938 53.11414063 11.48046875 53.26953125 C8.78017975 54.06473447 7.73519448 54.82690155 6 57 C4.26107826 60.47784347 4.63176083 64.65192204 4.48242188 68.50195312 C4.29284358 72.15401807 4.07639343 73.88540985 2 77 C-3.50078689 74.80679833 -5.42602105 70.06492632 -8 65 C-9.52058998 61.3861303 -10.82623648 57.7400374 -12 54 C-12.53753906 52.31777344 -12.53753906 52.31777344 -13.0859375 50.6015625 C-16.76529803 36.10425306 -12.96383929 19.86323423 -5.4609375 7.21875 C-3.78589409 4.67483381 -2.03457042 2.26932854 0 0 Z " fill="#F5F5F5" transform="translate(134,187)"/>
<path d="M0 0 C2.64 0 5.28 0 8 0 C8 10.23 8 20.46 8 31 C5.36 31 2.72 31 0 31 C0 28.03 0 25.06 0 22 C-4.95 22 -9.9 22 -15 22 C-14.505 22.99 -14.505 22.99 -14 24 C-13.31292969 23.95359375 -12.62585938 23.9071875 -11.91796875 23.859375 C-10.56638672 23.80523437 -10.56638672 23.80523437 -9.1875 23.75 C-8.29417969 23.70359375 -7.40085937 23.6571875 -6.48046875 23.609375 C-4 24 -4 24 -2.17578125 26.015625 C-1.78777344 26.67046875 -1.39976562 27.3253125 -1 28 C-5.03986491 31.23189193 -8.57083688 31.51850186 -13.5625 31.34765625 C-17.24866644 30.82190495 -19.28983949 29.51185609 -22 27 C-23.875 23.75 -23.875 23.75 -25 21 C-26.32 24.3 -27.64 27.6 -29 31 C-31.97 31 -34.94 31 -38 31 C-39.50585523 27.54418685 -41.00368289 24.08495247 -42.5 20.625 C-42.92925781 19.64015625 -43.35851562 18.6553125 -43.80078125 17.640625 C-44.20683594 16.69960937 -44.61289062 15.75859375 -45.03125 14.7890625 C-45.40830078 13.91975098 -45.78535156 13.05043945 -46.17382812 12.15478516 C-47 10 -47 10 -47 8 C-44.36 8 -41.72 8 -39 8 C-37.02 11.96 -35.04 15.92 -33 20 C-31.35 16.04 -29.7 12.08 -28 8 C-25.36 8 -22.72 8 -20 8 C-19.67 8.66 -19.34 9.32 -19 10 C-18.01 9.34 -17.02 8.68 -16 8 C-10.59484826 7.56410067 -7.4415915 7.60348885 -3 11 C-2.34 11.66 -1.68 12.32 -1 13 C-0.505 6.565 -0.505 6.565 0 0 Z " fill="#0B0B0B" transform="translate(349,209)"/>
<path d="M0 0 C8.58 0 17.16 0 26 0 C26 1.98 26 3.96 26 6 C26.928125 6 27.85625 6 28.8125 6 C35 6 35 6 37.5625 6.5625 C39.99764861 7.25042261 39.99764861 7.25042261 42 6 C47.65873983 5.41149106 52.17639822 5.70583293 57 9 C59.6875655 12.71703974 59.22571269 16.86512443 59.125 21.25 C59.11597656 21.99507812 59.10695313 22.74015625 59.09765625 23.5078125 C59.07418358 25.33868059 59.03831525 27.16938238 59 29 C55.66666667 29 52.33333333 29 49 29 C47.0509375 29.12375 47.0509375 29.12375 45.0625 29.25 C42.01854715 29.23878839 41.14921605 29.09699043 38.5 27.375 C36.55594168 24.29690766 36.391324 22.57597151 37 19 C39.1956044 16.84468192 40.50048385 16.0567632 43.578125 15.70703125 C44.45984375 15.74183594 45.3415625 15.77664062 46.25 15.8125 C47.58804688 15.85310547 47.58804688 15.85310547 48.953125 15.89453125 C49.62859375 15.92933594 50.3040625 15.96414062 51 16 C50.34 15.01 49.68 14.02 49 13 C45.58410104 12.70928519 43.26157733 12.91280756 40 14 C39.505 13.505 39.505 13.505 39 13 C37.02 13.66 35.04 14.32 33 15 C32.67 19.62 32.34 24.24 32 29 C29.36 29 26.72 29 24 29 C24 21.74 24 14.48 24 7 C21.69 7 19.38 7 17 7 C17 14.26 17 21.52 17 29 C14.36 29 11.72 29 9 29 C9 21.41 9 13.82 9 6 C6.03 6 3.06 6 0 6 C0 4.02 0 2.04 0 0 Z " fill="#0F0F0F" transform="translate(245,211)"/>
<path d="M0 0 C3.375 0.5625 3.375 0.5625 5.8125 2.1875 C7.84573755 5.27802108 7.89540677 6.91965261 7.375 10.5625 C5.36911263 14.54872204 3.06479934 16.89982255 -0.4375 19.625 C-4.91798915 23.1821651 -9.29804794 26.820143 -13.625 30.5625 C-18.81795645 35.04247449 -24.07540096 39.42136854 -29.41796875 43.72265625 C-30.14628906 44.32980469 -30.87460938 44.93695313 -31.625 45.5625 C-32.21539062 46.05234375 -32.80578125 46.5421875 -33.4140625 47.046875 C-35.00850609 49.04250117 -34.93639132 50.23087656 -34.8125 52.75 C-34.750625 54.008125 -34.68875 55.26625 -34.625 56.5625 C-38.625 56.5625 -38.625 56.5625 -41.640625 53.9375 C-42.72908297 52.82249428 -43.80690725 51.69702915 -44.875 50.5625 C-45.70644531 49.70398438 -45.70644531 49.70398438 -46.5546875 48.828125 C-47.92064122 47.41506943 -49.27405611 45.98991242 -50.625 44.5625 C-49.965 43.5725 -49.305 42.5825 -48.625 41.5625 C-47.449375 41.706875 -46.27375 41.85125 -45.0625 42 C-41.91928051 42.11347363 -40.87834866 41.77198264 -38.4140625 39.734375 C-36.04024786 37.08569761 -33.81772242 34.36284429 -31.625 31.5625 C-30.21046443 29.83158956 -28.79377859 28.10243426 -27.375 26.375 C-26.64152344 25.47136719 -25.90804687 24.56773437 -25.15234375 23.63671875 C-22.12196367 19.950615 -19.04414623 16.30941857 -15.9375 12.6875 C-15.13554199 11.74161011 -15.13554199 11.74161011 -14.31738281 10.77661133 C-5.80107219 0.90016637 -5.80107219 0.90016637 0 0 Z " fill="#FAFAFA" transform="translate(234.625,226.4375)"/>
<path d="M0 0 C7 0 7 0 8.890625 1.79296875 C9.33921875 2.58316406 9.7878125 3.37335938 10.25 4.1875 C10.73210937 5.00734375 11.21421875 5.8271875 11.7109375 6.671875 C12.13632812 7.44015625 12.56171875 8.2084375 13 9 C13.61875 9.969375 14.2375 10.93875 14.875 11.9375 C16 14 16 14 16 16 C16.66 16 17.32 16 18 16 C18.26425781 15.29488281 18.52851563 14.58976563 18.80078125 13.86328125 C20.07497493 10.82098821 21.52188641 8.03467014 23.1875 5.1875 C23.73792969 4.21167969 24.28835938 3.23585937 24.85546875 2.23046875 C27 0 27 0 30.73828125 -0.32421875 C32.35283203 -0.16373047 32.35283203 -0.16373047 34 0 C34.1969993 4.0829333 34.38095476 8.16635266 34.5625 12.25 C34.64661133 13.98830078 34.64661133 13.98830078 34.73242188 15.76171875 C34.78076172 16.87675781 34.82910156 17.99179688 34.87890625 19.140625 C34.9260376 20.16704102 34.97316895 21.19345703 35.02172852 22.25097656 C35.00222257 24.71880683 34.72799029 26.65670465 34 29 C31.36 29 28.72 29 26 29 C25.67 25.04 25.34 21.08 25 17 C23.02 19.97 21.04 22.94 19 26 C14 25 14 25 12.41796875 23.15234375 C11.27864583 21.1015625 10.13932292 19.05078125 9 17 C8.67 20.96 8.34 24.92 8 29 C5.36 29 2.72 29 0 29 C0 19.43 0 9.86 0 0 Z " fill="#090909" transform="translate(358,211)"/>
<path d="M0 0 C4.10657938 1.77329564 6.62502162 4.21762703 9 8 C9 9.98 9 11.96 9 14 C3.72 14 -1.56 14 -7 14 C-6.67 14.66 -6.34 15.32 -6 16 C-5.31292969 15.95359375 -4.62585938 15.9071875 -3.91796875 15.859375 C-3.01691406 15.82328125 -2.11585938 15.7871875 -1.1875 15.75 C-0.29417969 15.70359375 0.59914063 15.6571875 1.51953125 15.609375 C4 16 4 16 5.82421875 18.015625 C6.21222656 18.67046875 6.60023438 19.3253125 7 20 C2.92159635 23.26272292 -0.59581703 23.4466597 -5.62109375 23.296875 C-8.6875179 22.91420138 -10.63792881 21.98109196 -13 20 C-13.33 19.34 -13.66 18.68 -14 18 C-15.97888961 17.27306096 -17.97954558 16.60183749 -20 16 C-20 13.03 -20 10.06 -20 7 C-18.02 7 -16.04 7 -14 7 C-13.7525 6.401875 -13.505 5.80375 -13.25 5.1875 C-10.15045115 -0.23671049 -5.94244126 -0.86586469 0 0 Z " fill="#0E0E0E" transform="translate(444,217)"/>
<path d="M0 0 C0.66 0 1.32 0 2 0 C2 0.99 2 1.98 2 3 C3.98 2.67 5.96 2.34 8 2 C8 2.66 8 3.32 8 4 C5.69 4.33 3.38 4.66 1 5 C1.25662245 6.44010481 1.53090821 7.8770687 1.8125 9.3125 C1.96332031 10.11300781 2.11414063 10.91351563 2.26953125 11.73828125 C3.32922957 15.01937925 4.96637574 16.33616373 7.8125 18.1640625 C11.47190837 19.56247927 15.24452902 19.35422455 19.125 19.4609375 C22.69169645 20.12969308 23.8748641 21.08796237 26 24 C27.05674423 28.77865957 26.67342176 32.86214944 24.1875 37.0625 C19.90594555 40.85473394 14.27357795 40.55329321 8.8046875 40.98632812 C5.6724066 41.31284818 3.48456289 41.59523616 1.03125 43.64453125 C-0.34429425 46.78639936 -0.41168203 49.4526787 -0.5 52.875 C-0.63497419 58.08275407 -1.39219104 61.46407697 -4 66 C9.39723946 79.64533649 27.20798772 85.20372829 46 86 C46 86.33 46 86.66 46 87 C26.14190595 87.58406159 26.14190595 87.58406159 18 84 C16.55753906 83.37931641 16.55753906 83.37931641 15.0859375 82.74609375 C5.18770797 78.14780231 -3.54869781 71.89233546 -10 63 C-9.67 62.01 -9.34 61.02 -9 60 C-7.68 60.66 -6.36 61.32 -5 62 C-3.07953664 58.15907327 -3.6348123 52.95114089 -3.4765625 48.69921875 C-2.99274725 44.94370199 -2.24926591 42.99716077 0 40 C3.08681608 37.87116133 6.32764611 37.50077553 10 37 C10 36.01 10 35.02 10 34 C10.515625 34.33 11.03125 34.66 11.5625 35 C14.86224134 36.35374004 17.47013492 36.32683936 21 36 C23.71232939 31.93150591 23.30699887 29.83523216 23 25 C20.3630376 22.3630376 19.04403527 22.77574262 15.375 22.6875 C9.49839388 22.29902243 5.4272154 20.92773469 1 17 C-1.24666134 13.63000798 -1.2457371 12.43894538 -1.1875 8.5 C-1.18105469 7.5409375 -1.17460937 6.581875 -1.16796875 5.59375 C-1 3 -1 3 0 0 Z " fill="#151515" transform="translate(141,201)"/>
<path d="M0 0 C8.25 0 16.5 0 25 0 C25 1.98 25 3.96 25 6 C22.03 6 19.06 6 16 6 C16 13.59 16 21.18 16 29 C13.69 29 11.38 29 9 29 C9 21.41 9 13.82 9 6 C6.03 6 3.06 6 0 6 C0 4.02 0 2.04 0 0 Z " fill="#000000" transform="translate(245,211)"/>
<path d="M0 0 C2.01789772 3.78233969 3.53542192 7.75210216 5.0625 11.75 C5.33126953 12.42804688 5.60003906 13.10609375 5.87695312 13.8046875 C7.69059056 18.56265903 8.68290353 22.90458779 9 28 C7.5625 30.5 7.5625 30.5 6 32 C4.16333008 31.78442383 4.16333008 31.78442383 2 31 C0.61206055 29.0222168 0.61206055 29.0222168 -0.61328125 26.44921875 C-1.05607422 25.52302734 -1.49886719 24.59683594 -1.95507812 23.64257812 C-2.62700195 22.17981445 -2.62700195 22.17981445 -3.3125 20.6875 C-3.77978516 19.72392578 -4.24707031 18.76035156 -4.72851562 17.76757812 C-8.07864858 10.62689591 -8.07864858 10.62689591 -7.72363281 7.79711914 C-6.764273 5.41457947 -5.43140473 4.34512378 -3.4375 2.75 C-2.79683594 2.22921875 -2.15617188 1.7084375 -1.49609375 1.171875 C-1.00238281 0.78515625 -0.50867188 0.3984375 0 0 Z " fill="#F6F6F6" transform="translate(227,254)"/>
<path d="M0 0 C3.53636526 0.92147738 6.94346658 2.123558 10.375 3.375 C11.28894531 3.69210938 12.20289063 4.00921875 13.14453125 4.3359375 C19.8665447 6.7330894 19.8665447 6.7330894 21 9 C19.02 11.64 17.04 14.28 15 17 C9.43335076 15.33913088 4.34213647 12.88928264 -0.875 10.375 C-1.75414062 9.95476562 -2.63328125 9.53453125 -3.5390625 9.1015625 C-5.69422878 8.0708308 -7.84779922 7.03690574 -10 6 C-10 4.68 -10 3.36 -10 2 C-6.17676944 -0.54882037 -4.56803443 -0.38742698 0 0 Z " fill="#F7F7F7" transform="translate(193,233)"/>
<path d="M0 0 C-0.350625 0.556875 -0.70125 1.11375 -1.0625 1.6875 C-2.27144529 4.66956504 -2.03548655 5.96750367 -1 9 C1.31008993 12.52997699 1.31008993 12.52997699 4.75 14.8125 C5.4925 14.874375 6.235 14.93625 7 15 C8.2375 15.144375 9.475 15.28875 10.75 15.4375 C16.09983714 15.33861207 19.21480192 12.53523217 23 9 C24.52423628 7.3781915 26.04499212 5.75310591 27.5625 4.125 C30.39141656 1.26706891 31.55415473 0.11942284 35.5 -0.9375 C43.10356362 1.09916883 49.03981429 6.69898902 55.0546875 11.58203125 C57.04528783 13.18357772 57.04528783 13.18357772 60 14 C59.67 14.99 59.34 15.98 59 17 C52.7868189 13.47461354 47.28018728 9.82104056 42 5 C41.05125 5.825 40.1025 6.65 39.125 7.5 C36.25 10 36.25 10 34 10 C35.29299694 7.11562221 36.65941363 5.12780579 39 3 C36.02227724 2.54188881 33.87954376 2.36104893 31.36669922 4.18652344 C29.65479507 5.86283814 28.03594585 7.59016293 26.4375 9.375 C19.06497154 17.44597852 19.06497154 17.44597852 12.53515625 18.3359375 C6.81859534 18.42624652 3.3577825 18.06066096 -1 14 C-3.16935639 11.0958616 -5.12966493 8.10396032 -7 5 C-2.25 0 -2.25 0 0 0 Z " fill="#151515" transform="translate(172,192)"/>
<path d="M0 0 C2.49264341 2.167516 3.66042289 3.67699544 4 7 C0.51022323 13.0568329 -4.67941951 16.42891641 -11 19 C-11.66 19 -12.32 19 -13 19 C-14.57387537 14.89043652 -14.57387537 14.89043652 -14 12 C-9.97644945 7.29158979 -4.958182 3.66928692 0 0 Z " fill="#F5F5F5" transform="translate(216,263)"/>
<path d="M0 0 C1 3 1 3 0.1796875 5.2265625 C-0.25085938 6.01804688 -0.68140625 6.80953125 -1.125 7.625 C-1.74761719 8.81996094 -1.74761719 8.81996094 -2.3828125 10.0390625 C-4.42963549 12.52095898 -5.86445765 12.69383593 -9 13 C-9.33 12.01 -9.66 11.02 -10 10 C-10.55429688 10.5053125 -11.10859375 11.010625 -11.6796875 11.53125 C-12.40414062 12.1809375 -13.12859375 12.830625 -13.875 13.5 C-14.59429687 14.1496875 -15.31359375 14.799375 -16.0546875 15.46875 C-18 17 -18 17 -20 17 C-21.14217559 18.10756421 -22.27534929 19.22559476 -23.3671875 20.3828125 C-25.36263403 22.35916385 -27.52282149 24.08618206 -29.6875 25.875 C-33.7146732 29.3937593 -35.23220013 31.73508657 -36 37 C-36.33 37 -36.66 37 -37 37 C-37.9375 33.9375 -37.9375 33.9375 -38 30 C-36.14864484 27.14119363 -33.61512069 25.15021034 -31 23 C-29.72962891 21.93072266 -29.72962891 21.93072266 -28.43359375 20.83984375 C-25.64657292 18.52855905 -22.82459863 16.2651183 -20 14 C-19.11441406 13.25878906 -18.22882813 12.51757812 -17.31640625 11.75390625 C-12.66023855 7.89148403 -8.62263223 5.18020433 -3 3 C-1.11970761 1.46048953 -1.11970761 1.46048953 0 0 Z " fill="#1F1F1F" transform="translate(237,245)"/>
<path d="M0 0 C0.66 0 1.32 0 2 0 C0.70024676 6.71539173 -1.29928888 12.72019113 -4 19 C-3.01 19.86625 -3.01 19.86625 -2 20.75 C0 23 0 23 0 27 C-0.66 27 -1.32 27 -2 27 C-3.625 24.5 -3.625 24.5 -5 22 C-5.99 22.33 -6.98 22.66 -8 23 C-8 24.65 -8 26.3 -8 28 C-8.66 28 -9.32 28 -10 28 C-12.09230769 23.56923077 -12.09230769 23.56923077 -11.625 20.6875 C-11.41875 20.130625 -11.2125 19.57375 -11 19 C-10.01 19 -9.02 19 -8 19 C-6.68 16.36 -5.36 13.72 -4 11 C-4.33 10.67 -4.66 10.34 -5 10 C-5.763125 10.680625 -6.52625 11.36125 -7.3125 12.0625 C-8.199375 12.701875 -9.08625 13.34125 -10 14 C-10.99 13.67 -11.98 13.34 -13 13 C-12.22914063 12.39671875 -11.45828125 11.7934375 -10.6640625 11.171875 C-9.66117188 10.37265625 -8.65828125 9.5734375 -7.625 8.75 C-6.62726563 7.96109375 -5.62953125 7.1721875 -4.6015625 6.359375 C-2.26907982 4.24403035 -1.10149667 2.89308764 0 0 Z " fill="#151515" transform="translate(241,237)"/>
<path d="M0 0 C0 0.33 0 0.66 0 1 C-1.14339844 1.26554688 -2.28679687 1.53109375 -3.46484375 1.8046875 C-4.95583291 2.16102453 -6.44671279 2.51781904 -7.9375 2.875 C-8.69224609 3.04902344 -9.44699219 3.22304687 -10.22460938 3.40234375 C-12.16593545 3.87244065 -14.08549544 4.4304297 -16 5 C-16.33 5.66 -16.66 6.32 -17 7 C-16.40574219 7.23847656 -15.81148437 7.47695312 -15.19921875 7.72265625 C-12.53339712 9.27101091 -11.46453543 10.85115147 -9.8125 13.4375 C-9.04873047 14.61119141 -9.04873047 14.61119141 -8.26953125 15.80859375 C-5.65685306 20.31847825 -5.91704914 23.93999768 -6 29 C-6.99 29 -7.98 29 -9 29 C-9.00257813 28.38253906 -9.00515625 27.76507813 -9.0078125 27.12890625 C-9.32989986 20.07519312 -11.18646309 15.22886421 -16 10 C-18.29227976 8.29912841 -20.3875602 7.20172231 -23 6 C-16.64600534 0.72269656 -8.07167177 -2.20136503 0 0 Z " fill="#242424" transform="translate(174,165)"/>
<path d="M0 0 C1.9375 0.75 1.9375 0.75 4 2 C4.625 4.0625 4.625 4.0625 5 6 C5.66 6.33 6.32 6.66 7 7 C6.33097656 7.52722656 5.66195312 8.05445313 4.97265625 8.59765625 C2.6876693 10.87610082 2.6876693 10.87610082 2.93359375 14.05859375 C3.09988281 15.17363281 3.26617187 16.28867187 3.4375 17.4375 C4.30878518 23.35812293 4.30878518 23.35812293 2.66015625 26.78515625 C1 29 1 29 -1 31 C-1.99 30.67 -2.98 30.34 -4 30 C-3.154375 29.175 -2.30875 28.35 -1.4375 27.5 C0.91811755 24.65861951 1.00246476 24.15035012 0.9375 20.1875 C0.65801172 18.78468382 0.34335443 17.38856569 0 16 C-0.35529301 14.43775573 -0.70945274 12.87525331 -1.0625 11.3125 C-1.23394531 10.56484375 -1.40539062 9.8171875 -1.58203125 9.046875 C-2.07705999 6.62262213 -2.29846025 4.46229707 -2 2 C-1.34 1.34 -0.68 0.68 0 0 Z " fill="#1D1D1D" transform="translate(234,258)"/>
<path d="M0 0 C0.99 0.33 1.98 0.66 3 1 C2.195625 1.928125 1.39125 2.85625 0.5625 3.8125 C-3.71645551 8.79948412 -7.85274576 13.90348535 -12 19 C-12.66 18.34 -13.32 17.68 -14 17 C-13.67 16.01 -13.34 15.02 -13 14 C-14.134375 13.54625 -15.26875 13.0925 -16.4375 12.625 C-20 11 -20 11 -21 9 C-19.35 8.34 -17.7 7.68 -16 7 C-16.7425 6.071875 -16.7425 6.071875 -17.5 5.125 C-19 3 -19 3 -19 1 C-16.53199953 2.15173355 -14.95216435 3.04783565 -13 5 C-13.35355436 7.26274788 -13.97544426 8.95088852 -15 11 C-12.20581104 11.46065906 -12.20581104 11.46065906 -9 11 C-6.32708162 8.61976304 -6.32708162 8.61976304 -4.125 5.5 C-3.34382813 4.4790625 -2.56265625 3.458125 -1.7578125 2.40625 C-1.17773438 1.6121875 -0.59765625 0.818125 0 0 Z " fill="#1F1F1F" transform="translate(226,227)"/>
<path d="M0 0 C1.84375 0.80078125 1.84375 0.80078125 3.09375 2.67578125 C3.84375 4.80078125 3.84375 4.80078125 3.84375 7.80078125 C2.16015625 9.56640625 2.16015625 9.56640625 -0.15625 10.80078125 C-2.62890625 10.47265625 -2.62890625 10.47265625 -5.21875 9.55078125 C-6.07597656 9.256875 -6.93320313 8.96296875 -7.81640625 8.66015625 C-8.58855469 8.3765625 -9.36070312 8.09296875 -10.15625 7.80078125 C-11.14625 7.47078125 -12.13625 7.14078125 -13.15625 6.80078125 C-12.82625 5.48078125 -12.49625 4.16078125 -12.15625 2.80078125 C-11.16625 2.80078125 -10.17625 2.80078125 -9.15625 2.80078125 C-9.15625 3.79078125 -9.15625 4.78078125 -9.15625 5.80078125 C-8.69734375 5.35605469 -8.2384375 4.91132813 -7.765625 4.453125 C-6.84523437 3.60427734 -6.84523437 3.60427734 -5.90625 2.73828125 C-5.30296875 2.16980469 -4.6996875 1.60132813 -4.078125 1.015625 C-2.15625 -0.19921875 -2.15625 -0.19921875 0 0 Z " fill="#262626" transform="translate(206.15625,227.19921875)"/>
<path d="M0 0 C2.61393977 2.32686515 3.94752479 4.61638952 5.41015625 7.78125 C6.05887695 9.16763672 6.05887695 9.16763672 6.72070312 10.58203125 C7.16349609 11.54496094 7.60628906 12.50789063 8.0625 13.5 C8.94716657 15.40720326 9.83380273 17.31349447 10.72265625 19.21875 C11.11203369 20.06373047 11.50141113 20.90871094 11.90258789 21.77929688 C13.03722329 24.19522692 13.03722329 24.19522692 15 27 C13.125 26.875 13.125 26.875 11 26 C9.75 22.9375 9.75 22.9375 9 20 C7.9275 20.268125 6.855 20.53625 5.75 20.8125 C4.5125 20.874375 3.275 20.93625 2 21 C-0.4375 18.5625 -0.4375 18.5625 -2 16 C-1.01 16 -0.02 16 1 16 C1 16.66 1 17.32 1 18 C2.65 18 4.3 18 6 18 C5.34 16.02 4.68 14.04 4 12 C2.35 12.66 0.7 13.32 -1 14 C-0.690625 13.401875 -0.38125 12.80375 -0.0625 12.1875 C1.10209704 9.91043228 1.10209704 9.91043228 2 7 C0.62507196 3.8331162 0.62507196 3.8331162 -1 1 C-0.67 0.67 -0.34 0.34 0 0 Z " fill="#131313" transform="translate(217,261)"/>
<path d="M0 0 C0.66 0 1.32 0 2 0 C2 0.99 2 1.98 2 3 C3.98 2.67 5.96 2.34 8 2 C8 2.66 8 3.32 8 4 C5.69 4.33 3.38 4.66 1 5 C1.25662245 6.44010481 1.53090821 7.8770687 1.8125 9.3125 C1.96332031 10.11300781 2.11414063 10.91351563 2.26953125 11.73828125 C3.33753714 15.04510162 4.97211697 16.37562477 7.890625 18.1484375 C10.22988387 19.09280497 12.2414854 19.40366048 14.75 19.625 C15.54921875 19.69976562 16.3484375 19.77453125 17.171875 19.8515625 C17.77515625 19.90054688 18.3784375 19.94953125 19 20 C15.37199784 21.9302832 13.16465243 22.56062629 9 22 C4.75033466 19.93859517 1.63805046 17.95707569 -1 14 C-1.23046875 11.40625 -1.23046875 11.40625 -1.1875 8.5 C-1.18105469 7.5409375 -1.17460937 6.581875 -1.16796875 5.59375 C-1 3 -1 3 0 0 Z " fill="#101010" transform="translate(141,201)"/>
<path d="M0 0 C0 0.66 0 1.32 0 2 C-0.95712891 2.16435547 -0.95712891 2.16435547 -1.93359375 2.33203125 C-2.75988281 2.49058594 -3.58617187 2.64914063 -4.4375 2.8125 C-5.26121094 2.96332031 -6.08492187 3.11414063 -6.93359375 3.26953125 C-7.61550781 3.51058594 -8.29742187 3.75164062 -9 4 C-9.33 4.99 -9.66 5.98 -10 7 C-5.38 9.31 -0.76 11.62 4 14 C4 14.33 4 14.66 4 15 C1.36 14.67 -1.28 14.34 -4 14 C-4 14.99 -4 15.98 -4 17 C-4.66 17 -5.32 17 -6 17 C-5.67 15.35 -5.34 13.7 -5 12 C-5.94875 11.71125 -6.8975 11.4225 -7.875 11.125 C-11 10 -11 10 -13 8 C-12.84693397 5.01521245 -12.39802756 3.46171196 -10.4375 1.1875 C-6.8580787 -0.55632063 -3.95820158 -0.19791008 0 0 Z " fill="#151515" transform="translate(193,231)"/>
<path d="M0 0 C1.79206547 0.14084796 3.58364917 0.28783701 5.375 0.4375 C6.87160156 0.55931641 6.87160156 0.55931641 8.3984375 0.68359375 C11 1 11 1 13 2 C12.67 2.99 12.34 3.98 12 5 C10.125 5.5625 10.125 5.5625 8 6 C7.01 6.66 6.02 7.32 5 8 C2.4375 7.875 2.4375 7.875 0 7 C-1.3125 4.9375 -1.3125 4.9375 -2 3 C-1.34 3 -0.68 3 0 3 C0 2.01 0 1.02 0 0 Z " fill="#1B1B1B" transform="translate(189,245)"/>
<path d="M0 0 C0.66 1.32 1.32 2.64 2 4 C2.99 3.34 3.98 2.68 5 2 C10.34545455 1.67272727 10.34545455 1.67272727 13 3 C13 3.99 13 4.98 13 6 C12.32453125 6.03738281 11.6490625 6.07476562 10.953125 6.11328125 C10.06109375 6.17902344 9.1690625 6.24476563 8.25 6.3125 C6.92742187 6.39951172 6.92742187 6.39951172 5.578125 6.48828125 C2.67696226 7.0641181 1.20774393 8.07596148 -1 10 C-1.02689216 8.52093108 -1.04634621 7.04172517 -1.0625 5.5625 C-1.07410156 4.73878906 -1.08570313 3.91507813 -1.09765625 3.06640625 C-1 1 -1 1 0 0 Z " fill="#EAEAEA" transform="translate(393,221)"/>
<path d="M0 0 C0.33 0 0.66 0 1 0 C1.53679805 13.40006976 1.53679805 13.40006976 -2 19 C-2 19.99 -2 20.98 -2 22 C-7.57142857 16.85714286 -7.57142857 16.85714286 -8 13 C-5.525 13.99 -5.525 13.99 -3 15 C-1.25544201 11.51088401 -1.53762734 7.50258205 -1.28125 3.65234375 C-1 1 -1 1 0 0 Z " fill="#0F0F0F" transform="translate(139,248)"/>
<path d="M0 0 C-0.350625 0.556875 -0.70125 1.11375 -1.0625 1.6875 C-2.27144529 4.66956504 -2.03548655 5.96750367 -1 9 C1.27516449 12.37351976 3.18688695 14.5019913 7 16 C5.375 16.8125 5.375 16.8125 3 17 C-1.94758325 13.70161117 -4.32137268 10.25423052 -7 5 C-2.25 0 -2.25 0 0 0 Z " fill="#1F1F1F" transform="translate(172,192)"/>
<path d="M0 0 C2.5625 0.1875 2.5625 0.1875 4.5625 2.1875 C4.1875 4.8125 4.1875 4.8125 3.5625 7.1875 C1.1875 7.8125 1.1875 7.8125 -1.4375 8.1875 C-3.4375 6.1875 -3.4375 6.1875 -3.625 3.625 C-3.37291261 0.34786389 -3.27713611 0.25208739 0 0 Z " fill="#808080" transform="translate(220.4375,185.8125)"/>
<path d="M0 0 C2.625 0.375 2.625 0.375 5 1 C5.625 3.375 5.625 3.375 6 6 C5.34 6.66 4.68 7.32 4 8 C1.375 7.625 1.375 7.625 -1 7 C-1.625 4.625 -1.625 4.625 -2 2 C-1.34 1.34 -0.68 0.68 0 0 Z " fill="#5D5D5D" transform="translate(129,233)"/>
<path d="M0 0 C3.38231081 1.39957689 5.27928642 2.73064421 7 6 C7.43602521 9.85415137 7.23465158 13.29604525 6 17 C6.66 17.33 7.32 17.66 8 18 C7.01 18 6.02 18 5 18 C4.85304687 16.78763672 4.85304687 16.78763672 4.703125 15.55078125 C3.69576857 7.46310609 3.69576857 7.46310609 -1 1 C-0.67 0.67 -0.34 0.34 0 0 Z " fill="#333333" transform="translate(138,186)"/>
<path d="M0 0 C2.5625 0.1875 2.5625 0.1875 4.5625 2.1875 C4.02678571 5.72321429 4.02678571 5.72321429 2.5625 7.1875 C0.0625 7.3125 0.0625 7.3125 -2.4375 7.1875 C-3.4375 6.1875 -3.4375 6.1875 -3.5625 3.6875 C-3.39599509 0.35740177 -3.31519894 0.2550153 0 0 Z " fill="#464646" transform="translate(173.4375,173.8125)"/>
<path d="M0 0 C0.66 0 1.32 0 2 0 C6.07996731 5.86014173 9.56283647 11.97386719 11 19 C8 18 8 18 6.2109375 14.98046875 C5.5886183 13.72120319 4.97702252 12.45659409 4.375 11.1875 C3.90707031 10.24293945 3.90707031 10.24293945 3.4296875 9.27929688 C1.94932624 6.23881351 0.62191413 3.33648526 0 0 Z " fill="#252525" transform="translate(230,188)"/>
<path d="M0 0 C1 3 1 3 0.07421875 5.2265625 C-0.38339844 6.01804688 -0.84101563 6.80953125 -1.3125 7.625 C-1.76238281 8.42164063 -2.21226562 9.21828125 -2.67578125 10.0390625 C-4 12 -4 12 -6 13 C-6.9375 9.875 -6.9375 9.875 -7 6 C-4.97453209 3.5556526 -2.61534535 1.7805219 0 0 Z " fill="#EDEDED" transform="translate(237,245)"/>
<path d="M0 0 C3.16115776 1.36983503 3.9927092 1.9890638 6 5 C5.34 5.66 4.68 6.32 4 7 C0.375 6.625 0.375 6.625 -3 6 C-3 3 -3 3 -1.5 1.3125 C-0.7575 0.6628125 -0.7575 0.6628125 0 0 Z " fill="#E4E4E4" transform="translate(205,229)"/>
<path d="M0 0 C1.65 0 3.3 0 5 0 C5 3.3 5 6.6 5 10 C3.35 9.67 1.7 9.34 0 9 C0 6.03 0 3.06 0 0 Z " fill="#EEEEEE" transform="translate(424,224)"/>
<path d="M0 0 C2.51570636 0.97382182 3.73944098 1.46151135 4.9375 3.9375 C5 6 5 6 3.6875 7.75 C2 9 2 9 0 9 C-0.66 6.69 -1.32 4.38 -2 2 C-1.34 1.34 -0.68 0.68 0 0 Z " fill="#EFEFEF" transform="translate(234,258)"/>
<path d="M0 0 C2.46800047 1.15173355 4.04783565 2.04783565 6 4 C5.625 7.625 5.625 7.625 5 11 C2.625 11.1875 2.625 11.1875 0 11 C-0.66 10.01 -1.32 9.02 -2 8 C-0.35 7.34 1.3 6.68 3 6 C2.2575 5.071875 2.2575 5.071875 1.5 4.125 C0 2 0 2 0 0 Z " fill="#191919" transform="translate(207,228)"/>
<path d="M0 0 C-2 3 -2 3 -4.3125 3.875 C-7.67259378 5.28155088 -9.5538473 7.34417707 -12 10 C-11.52048204 5.68433833 -10.29764982 3.7980059 -7 1 C-4.53721199 -0.231394 -2.7204945 -0.07159196 0 0 Z " fill="#222222" transform="translate(150,239)"/>
<path d="M0 0 C0.33 0 0.66 0 1 0 C0.47462276 5.0302076 -0.10594786 10.01885239 -1 15 C-1.99 15.33 -2.98 15.66 -4 16 C-3.47606294 10.13190493 -2.23891142 5.45126259 0 0 Z " fill="#2F2F2F" transform="translate(123,200)"/>
<path d="M0 0 C2.50037734 2.17424117 3.43628586 3.73045798 4 7 C0.25 8.125 0.25 8.125 -2 7 C-2.125 4.625 -2.125 4.625 -2 2 C-1.34 1.34 -0.68 0.68 0 0 Z " fill="#E9E9E9" transform="translate(220,272)"/>
<path d="M0 0 C0.66 0 1.32 0 2 0 C1.34 1.32 0.68 2.64 0 4 C-1.98567708 3.93489583 -3.97135417 3.86979167 -5.95703125 3.8046875 C-8.31359719 3.86745538 -8.31359719 3.86745538 -11 6 C-11 3 -11 3 -9 1 C-7.08984375 0.83984375 -7.08984375 0.83984375 -4.9375 0.9375 C-3.638125 0.958125 -2.33875 0.97875 -1 1 C-0.67 0.67 -0.34 0.34 0 0 Z " fill="#0F0F0F" transform="translate(194,265)"/>
<path d="M0 0 C0.66 0 1.32 0 2 0 C0.49087042 4.98012761 -2.55661849 8.24259942 -6 12 C-6.66 11.34 -7.32 10.68 -8 10 C-6.71580959 8.32756598 -5.42242815 6.66218553 -4.125 5 C-3.04605469 3.6078125 -3.04605469 3.6078125 -1.9453125 2.1875 C-1.30335938 1.465625 -0.66140625 0.74375 0 0 Z " fill="#1D1D1D" transform="translate(203,254)"/>
<path d="M0 0 C4.75 0.875 4.75 0.875 7 2 C6.34 3.32 5.68 4.64 5 6 C3.35 5.67 1.7 5.34 0 5 C0 3.35 0 1.7 0 0 Z " fill="#F3F3F3" transform="translate(189,245)"/>
<path d="M0 0 C0.66 0 1.32 0 2 0 C3.28317892 3.84953676 3.06643637 6.94738135 3 11 C2.01 11 1.02 11 0 11 C0 7.37 0 3.74 0 0 Z " fill="#3D3D3D" transform="translate(165,183)"/>
<path d="M0 0 C1.65 0 3.3 0 5 0 C5.66 1.32 6.32 2.64 7 4 C4.03 4 1.06 4 -2 4 C-1.34 2.68 -0.68 1.36 0 0 Z " fill="#D7D7D7" transform="translate(438,223)"/>
<path d="M0 0 C1.65 0 3.3 0 5 0 C5.66 1.32 6.32 2.64 7 4 C4.03 4 1.06 4 -2 4 C-1.34 2.68 -0.68 1.36 0 0 Z " fill="#D7D7D7" transform="translate(335,223)"/>
<path d="M0 0 C2.64 1.32 5.28 2.64 8 4 C7.67 4.66 7.34 5.32 7 6 C4.03 6 1.06 6 -2 6 C-1.34 5.01 -0.68 4.02 0 3 C0 2.01 0 1.02 0 0 Z " fill="#0C0C0C" transform="translate(151,235)"/>
<path d="M0 0 C4.10447392 0.51776621 5.95699523 2.64627444 8.75 5.5625 C9.94882813 6.80193359 9.94882813 6.80193359 11.171875 8.06640625 C11.77515625 8.70449219 12.3784375 9.34257812 13 10 C12.34 10.66 11.68 11.32 11 12 C10.54109375 11.46890625 10.0821875 10.9378125 9.609375 10.390625 C6.50506283 6.81675301 3.41818688 3.28145941 0 0 Z " fill="#131313" transform="translate(218,177)"/>
<path d="M0 0 C0.99 0 1.98 0 3 0 C1.66398408 2.67203184 -0.06709588 3.50825931 -2.5625 5.125 C-3.38878906 5.66382813 -4.21507812 6.20265625 -5.06640625 6.7578125 C-5.70449219 7.16773438 -6.34257812 7.57765625 -7 8 C-7.99 7.34 -8.98 6.68 -10 6 C-9.36191406 5.65066406 -8.72382813 5.30132812 -8.06640625 4.94140625 C-7.24011719 4.48636719 -6.41382813 4.03132813 -5.5625 3.5625 C-4.73878906 3.11003906 -3.91507813 2.65757812 -3.06640625 2.19140625 C-1.07691202 1.16337603 -1.07691202 1.16337603 0 0 Z " fill="#262626" transform="translate(215,275)"/>
<path d="M0 0 C1.45792884 -0.05399736 2.91642712 -0.09279177 4.375 -0.125 C5.18710937 -0.14820313 5.99921875 -0.17140625 6.8359375 -0.1953125 C9 0 9 0 11 2 C7.52674819 3.1577506 4.63932552 3.06866652 1 3 C0.67 2.01 0.34 1.02 0 0 Z " fill="#F3F3F3" transform="translate(437,231)"/>
<path d="M0 0 C1.45792884 -0.05399736 2.91642712 -0.09279177 4.375 -0.125 C5.18710937 -0.14820313 5.99921875 -0.17140625 6.8359375 -0.1953125 C9 0 9 0 11 2 C7.52674819 3.1577506 4.63932552 3.06866652 1 3 C0.67 2.01 0.34 1.02 0 0 Z " fill="#F3F3F3" transform="translate(334,231)"/>
<path d="M0 0 C1.2065625 0.0309375 1.2065625 0.0309375 2.4375 0.0625 C2.7675 1.3825 3.0975 2.7025 3.4375 4.0625 C0.9625 3.0725 0.9625 3.0725 -1.5625 2.0625 C-1.2325 3.7125 -0.9025 5.3625 -0.5625 7.0625 C-1.5525 6.7325 -2.5425 6.4025 -3.5625 6.0625 C-3.605221 4.39638095 -3.60313832 2.72867115 -3.5625 1.0625 C-2.5625 0.0625 -2.5625 0.0625 0 0 Z " fill="#0E0E0E" transform="translate(220.5625,185.9375)"/>
<path d="M0 0 C1.98 0 3.96 0 6 0 C5.67 1.32 5.34 2.64 5 4 C3.35 4 1.7 4 0 4 C0 2.68 0 1.36 0 0 Z " fill="#ECECEC" transform="translate(290,231)"/>
<path d="M0 0 C0.66 0 1.32 0 2 0 C2 2.64 2 5.28 2 8 C1.01 8.33 0.02 8.66 -1 9 C-1.125 2.25 -1.125 2.25 0 0 Z " fill="#454545" transform="translate(126,213)"/>
<path d="M0 0 C1.98 0 3.96 0 6 0 C5.67 1.32 5.34 2.64 5 4 C3.35 4 1.7 4 0 4 C0 2.68 0 1.36 0 0 Z " fill="#F5F5F5" transform="translate(400,231)"/>
<path d="M0 0 C5 2 5 2 10 4 C8.4375 5.25 8.4375 5.25 6 6 C3.42998985 4.93237266 1.3469597 3.53455057 -1 2 C-0.67 1.34 -0.34 0.68 0 0 Z " fill="#1C1C1C" transform="translate(148,277)"/>
<path d="M0 0 C2 1 2 1 3.125 3.25 C4.00513321 6.01613295 4.1645438 8.12048351 4 11 C0.85041169 7.57653445 0.43820891 4.55737263 0 0 Z " fill="#171717" transform="translate(122,244)"/>
<path d="M0 0 C1.65 0.33 3.3 0.66 5 1 C5.33 2.32 5.66 3.64 6 5 C5.34 5 4.68 5 4 5 C3.67 4.34 3.34 3.68 3 3 C1.68 3.33 0.36 3.66 -1 4 C-0.67 2.68 -0.34 1.36 0 0 Z " fill="#111111" transform="translate(129,233)"/>
<path d="M0 0 C0.66 0 1.32 0 2 0 C2 2.31 2 4.62 2 7 C1.01 7.33 0.02 7.66 -1 8 C-0.67 5.36 -0.34 2.72 0 0 Z " fill="#393939" transform="translate(195,217)"/>
<path d="M0 0 C0.66 0 1.32 0 2 0 C0.84414715 3.91211733 -0.35534962 6.8745041 -3 10 C-2.25 3.375 -2.25 3.375 0 0 Z " fill="#141414" transform="translate(127,193)"/>
<path d="M0 0 C0.33 0.99 0.66 1.98 1 3 C-3.75 7 -3.75 7 -6 7 C-4.60667426 3.63279613 -3.0210714 2.0140476 0 0 Z " fill="#232323" transform="translate(212,195)"/>
<path d="M0 0 C0.763125 0.309375 1.52625 0.61875 2.3125 0.9375 C4.18789677 1.67893593 6.08684652 2.36228217 8 3 C8 3.66 8 4.32 8 5 C5.125 4.75 5.125 4.75 2 4 C0.625 1.9375 0.625 1.9375 0 0 Z " fill="#282828" transform="translate(168,254)"/>
<path d="M0 0 C0.99 0 1.98 0 3 0 C3.625 3.375 3.625 3.375 4 7 C3.34 7.66 2.68 8.32 2 9 C1.34 6.03 0.68 3.06 0 0 Z " fill="#2F2F2F" transform="translate(119,237)"/>
<path d="M0 0 C0.66 1.65 1.32 3.3 2 5 C1.01 5.99 0.02 6.98 -1 8 C-1.33 7.34 -1.66 6.68 -2 6 C-1.67 5.01 -1.34 4.02 -1 3 C-1.99 2.34 -2.98 1.68 -4 1 C-2 0 -2 0 0 0 Z " fill="#262626" transform="translate(214,238)"/>
<path d="M0 0 C-0.6875 1.9375 -0.6875 1.9375 -2 4 C-4.625 4.75 -4.625 4.75 -7 5 C-7.66 4.01 -8.32 3.02 -9 2 C-2.25 0 -2.25 0 0 0 Z " fill="#2E2E2E" transform="translate(165,236)"/>
<path d="M0 0 C0.66 0 1.32 0 2 0 C0.52307692 4.67692308 0.52307692 4.67692308 -2.125 6.3125 C-3.053125 6.6528125 -3.053125 6.6528125 -4 7 C-2.92598892 4.08482708 -2.22189824 2.22189824 0 0 Z " fill="#252525" transform="translate(202,205)"/>
<path d="M0 0 C-0.33 0.99 -0.66 1.98 -1 3 C-4.0625 4.1875 -4.0625 4.1875 -7 5 C-5.22678182 1.07358831 -4.52021524 0 0 0 Z " fill="#1B1B1B" transform="translate(137,205)"/>
<path d="M0 0 C0.66 0.66 1.32 1.32 2 2 C-3.75 6 -3.75 6 -6 6 C-6 5.34 -6 4.68 -6 4 C-4.03852126 2.61061923 -2.03833424 1.2739589 0 0 Z " fill="#272727" transform="translate(186,253)"/>
<path d="M0 0 C-5.75 3 -5.75 3 -8 3 C-8 2.01 -8 1.02 -8 0 C-4.94736336 -0.98120464 -3.05263664 -0.98120464 0 0 Z " fill="#262626" transform="translate(162,201)"/>
<path d="M0 0 C0 0.33 0 0.66 0 1 C-7.625 2.25 -7.625 2.25 -11 0 C-7.18243176 -1.37432457 -3.92744671 -0.67975039 0 0 Z " fill="#3A3A3A" transform="translate(174,165)"/>
<path d="M0 0 C0.66 0.66 1.32 1.32 2 2 C1.01 3.98 0.02 5.96 -1 8 C-1.66 7.67 -2.32 7.34 -3 7 C-1.125 1.125 -1.125 1.125 0 0 Z " fill="#202020" transform="translate(238,247)"/>
<path d="M0 0 C0.66 0 1.32 0 2 0 C2.33 1.98 2.66 3.96 3 6 C2.01 6.33 1.02 6.66 0 7 C0 5.68 0 4.36 0 3 C-0.66 2.67 -1.32 2.34 -2 2 C-1.34 1.34 -0.68 0.68 0 0 Z " fill="#292929" transform="translate(228,251)"/>
<path d="M0 0 C0.66 0 1.32 0 2 0 C2 0.66 2 1.32 2 2 C4.97 2.495 4.97 2.495 8 3 C7.67 3.66 7.34 4.32 7 5 C4.625 4.75 4.625 4.75 2 4 C0.6875 1.9375 0.6875 1.9375 0 0 Z " fill="#212121" transform="translate(187,248)"/>
<path d="M0 0 C1.65 1.65 3.3 3.3 5 5 C4.67 5.99 4.34 6.98 4 8 C0 3.375 0 3.375 0 0 Z " fill="#1D1D1D" transform="translate(160,244)"/>
<path d="M0 0 C1.65 1.65 3.3 3.3 5 5 C4.67 5.99 4.34 6.98 4 8 C2 6.8125 2 6.8125 0 5 C-0.25 2.3125 -0.25 2.3125 0 0 Z " fill="#1F1F1F" transform="translate(142,213)"/>
<path d="M0 0 C0.66 0.33 1.32 0.66 2 1 C0.35 2.98 -1.3 4.96 -3 7 C-3.66 6.34 -4.32 5.68 -5 5 C-3.35 3.35 -1.7 1.7 0 0 Z " fill="#292929" transform="translate(204,192)"/>
</svg>
