<?xml version="1.0" encoding="UTF-8"?>
<svg version="1.1" xmlns="http://www.w3.org/2000/svg" width="500" height="500">
<path d="M0 0 C165 0 330 0 500 0 C500 165 500 330 500 500 C335 500 170 500 0 500 C0 335 0 170 0 0 Z " fill="#FEFEFE" transform="translate(0,0)"/>
<path d="M0 0 C3.16578422 -0.59358454 5.84800011 -0.73075732 9 0 C13.12059655 3.38851087 16.05846766 7.5877015 19 12 C19.845625 12.309375 20.69125 12.61875 21.5625 12.9375 C24 14 24 14 24.8125 16 C25 18 25 18 25 20 C25.495 20.66 25.99 21.32 26.5 22 C28 24 28 24 28 26 C28.91910156 25.67257813 29.83820313 25.34515625 30.78515625 25.0078125 C35.94760805 23.53282627 41.11212732 23.78491562 46.4375 23.875 C47.96407227 23.88853516 47.96407227 23.88853516 49.52148438 23.90234375 C52.01457156 23.92575302 54.50715859 23.958543 57 24 C57 25.32 57 26.64 57 28 C52.38625305 30.08505872 47.8556214 31.88720265 42.87890625 32.875 C35.32944806 33.9821688 35.32944806 33.9821688 29.30859375 38.03125 C28.33611912 40.45228601 28.33611912 40.45228601 28 44 C28.66 44 29.32 44 30 44 C29.67 45.65 29.34 47.3 29 49 C28.01 49 27.02 49 26 49 C25.82984375 49.6290625 25.6596875 50.258125 25.484375 50.90625 C21.8923784 63.59287629 21.8923784 63.59287629 19 67 C16.08736887 68.4966288 13.20007051 69.34357528 10 70 C10.58839799 64.77881324 11.79627935 60.18750198 13.5625 55.25 C15.39804078 50.25639697 15.39804078 50.25639697 16 45 C16.66 45 17.32 45 18 45 C18.33 42.69 18.66 40.38 19 38 C17.94683594 38.144375 16.89367187 38.28875 15.80859375 38.4375 C6.13142687 39.7034183 -3.23894701 40.25574811 -13 40 C-13.99 42.97 -14.98 45.94 -16 49 C-15.01 48.67 -14.02 48.34 -13 48 C-6.60927101 57.72884172 -1.29980934 68.18398487 -1 80 C-0.92652344 81.25554687 -0.85304688 82.51109375 -0.77734375 83.8046875 C-0.33089569 94.02705242 -1.83611902 102.53980179 -6 112 C-6.41016357 112.94770264 -6.41016357 112.94770264 -6.82861328 113.91455078 C-14.10686154 130.22161634 -26.4042196 141.95137127 -43.06933594 148.61401367 C-60.00046278 154.82958734 -78.5541413 153.79229588 -94.91113281 146.48632812 C-112.03732997 138.39962447 -123.67945274 124.56901532 -130.1640625 106.8125 C-130.98755351 104.04187606 -131.16881486 101.86985264 -131 99 C-132.96614267 99.14657084 -132.96614267 99.14657084 -135 100 C-137.87394849 105.50125214 -138.68741392 111.91147669 -138 118 C-136.89236467 120.81399246 -135.52407814 123.39254101 -134 126 C-133.67 126.66 -133.34 127.32 -133 128 C-137.25373737 126.48080808 -138.83588994 123.85873344 -141 120 C-142.29686291 111.33199715 -141.48649362 103.53306531 -137 96 C-136.42765625 94.96166016 -136.42765625 94.96166016 -135.84375 93.90234375 C-134.9249063 92.25170668 -133.96687522 90.62296913 -133 89 C-133.33 88.67 -133.66 88.34 -134 88 C-134.14661567 70.99258191 -127.13478544 53.39051077 -115.30078125 41.23828125 C-114.54152344 40.49964844 -113.78226563 39.76101562 -113 39 C-112.31292969 38.29230469 -111.62585938 37.58460938 -110.91796875 36.85546875 C-99.39369427 25.67328776 -82.74385871 19.69717395 -66.8125 19.5625 C-56.28104202 19.76495549 -47.54921658 22.5432951 -38.0625 26.875 C-36.97884155 27.36613281 -36.97884155 27.36613281 -35.87329102 27.8671875 C-31.42221416 29.99879171 -28.38903132 32.33395221 -25 36 C-23.68 36.99 -22.36 37.98 -21 39 C-22.65 35.7 -24.3 32.4 -26 29 C-22.8125 28.625 -22.8125 28.625 -19 29 C-16.8596502 30.81188028 -15.61011698 32.65801167 -14 35 C-3.83738422 32.82608393 6.05977203 30.01182955 16 27 C15.01 24.03 15.01 24.03 14 21 C13.01 21 12.02 21 11 21 C10.88213135 20.41428223 10.7642627 19.82856445 10.64282227 19.22509766 C9.96870379 16.89166971 9.09625734 15.38433724 7.71484375 13.3984375 C7.26689453 12.74359375 6.81894531 12.08875 6.35742188 11.4140625 C5.88884766 10.74117187 5.42027344 10.06828125 4.9375 9.375 C0 2.26176671 0 2.26176671 0 0 Z " fill="#FAFAFA" transform="translate(311,166)"/>
<path d="M0 0 C3.49078287 3.0978809 5.23409148 6.12788087 7.125 10.375 C7.62257813 11.47585937 8.12015625 12.57671875 8.6328125 13.7109375 C11.17017865 19.81511549 12.6039283 25.40180548 13 32 C13.07734375 33.26457031 13.1546875 34.52914062 13.234375 35.83203125 C13.65803445 46.04364408 12.15977826 54.54912303 8 64 C7.72655762 64.63180176 7.45311523 65.26360352 7.17138672 65.91455078 C-0.10686154 82.22161634 -12.4042196 93.95137127 -29.06933594 100.61401367 C-46.00046278 106.82958734 -64.5541413 105.79229588 -80.91113281 98.48632812 C-98.05115666 90.39309573 -109.62176363 76.58260061 -116.1640625 58.84375 C-117.06868166 55.76635399 -117.15192472 53.19041916 -117 50 C-116.34 50 -115.68 50 -115 50 C-113.80712589 53.87684087 -113 56.91621923 -113 61 C-112.34 61 -111.68 61 -111 61 C-110.7525 60.46375 -110.505 59.9275 -110.25 59.375 C-109 57 -109 57 -106.875 54.5625 C-104.53431388 51.26196418 -104.98801298 48.5013393 -105.25 44.5625 C-105.49273886 38.66933995 -105.49273886 38.66933995 -103.234375 35.6015625 C-101.22978439 33.88434327 -99.24793504 32.37987084 -97 31 C-91.76039232 32.38695497 -89.02742362 35.72272259 -86 40 C-85.30686092 41.65583225 -84.63525576 43.32110979 -84 45 C-81.97959252 47.27191416 -81.97959252 47.27191416 -80 49 C-81.57199337 52.85852918 -83.82889891 55.32218131 -87 58 C-89.30988315 58.74386068 -91.64315944 59.42190703 -94 60 C-94.66 60.66 -95.32 61.32 -96 62 C-97.85483454 62.60713803 -99.73421385 63.14131052 -101.625 63.625 C-103.12933594 64.01558594 -103.12933594 64.01558594 -104.6640625 64.4140625 C-105.82035156 64.70410156 -105.82035156 64.70410156 -107 65 C-107.75649032 66.77905424 -107.75649032 66.77905424 -108 69 C-106.41795351 72.27114876 -104.1651367 75.08932094 -102 78 C-101.29875 78.99 -100.5975 79.98 -99.875 81 C-90.11385221 92.2315771 -74.80765702 99.9185899 -60.00488281 101.16845703 C-50.6265395 101.68420118 -41.94943127 101.0574129 -33 98 C-32.01644531 97.67128906 -31.03289062 97.34257812 -30.01953125 97.00390625 C-18.73899628 92.78647468 -6.72072552 84.96926418 -1 74 C-1.20014784 71.26696432 -1.20014784 71.26696432 -2 69 C-4.64 69.33 -7.28 69.66 -10 70 C-10 70.66 -10 71.32 -10 72 C-10.66 72 -11.32 72 -12 72 C-12.12375 70.7625 -12.2475 69.525 -12.375 68.25 C-12.77657653 65.13640662 -13.10794943 62.58912183 -15 60 C-17.0335948 58.73195434 -17.0335948 58.73195434 -19 58 C-19.33 58.99 -19.66 59.98 -20 61 C-23.3 61 -26.6 61 -30 61 C-30.495 56.545 -30.495 56.545 -31 52 C-31.11320856 57.08303686 -31.11320856 57.08303686 -30 62 C-28.515 62.495 -28.515 62.495 -27 63 C-27.5 64.8125 -27.5 64.8125 -29 67 C-30.80859375 67.6875 -30.80859375 67.6875 -32.9375 68.3125 C-36.04608171 69.28182458 -36.04608171 69.28182458 -38.05078125 71.70703125 C-38.28152344 72.33996094 -38.51226562 72.97289062 -38.75 73.625 C-39.1625 74.73875 -39.575 75.8525 -40 77 C-41.9375 77.6875 -41.9375 77.6875 -44 78 C-45.37310707 79.29233607 -46.71034824 80.62437146 -48 82 C-50.73247348 83.36623674 -52.98198902 83.128426 -56 83 C-57.86916794 81.13083206 -57.21688008 78.12555426 -57.25 75.625 C-57.27578125 74.46226562 -57.3015625 73.29953125 -57.328125 72.1015625 C-56.96126336 68.63384653 -56.49149217 68.19352746 -54 66 C-52.98317174 62.82010071 -52.96098322 60.17536251 -54 57 C-56.43101417 54.86639714 -58.87620071 53.34586543 -61.71484375 51.80078125 C-64 50 -64 50 -64.87109375 46.98828125 C-65.04502986 42.956126 -64.40870784 41.25884002 -62 38 C-59.70022529 36.84597636 -57.36586246 35.93399012 -54.96484375 35.01171875 C-52.69590491 34.11864843 -52.69590491 34.11864843 -51.9375 31.25 C-51.958125 30.5075 -51.97875 29.765 -52 29 C-50.02 29.33 -48.04 29.66 -46 30 C-46.185625 29.4225 -46.37125 28.845 -46.5625 28.25 C-47.04023546 25.79307475 -46.75729364 24.35602466 -46 22 C-47.485 21.505 -47.485 21.505 -49 21 C-48.67 20.34 -48.34 19.68 -48 19 C-47.01 19 -46.02 19 -45 19 C-45 18.34 -45 17.68 -45 17 C-44.34 17 -43.68 17 -43 17 C-42.505 20.96 -42.505 20.96 -42 25 C-40.02463255 24.65213292 -40.02463255 24.65213292 -38 24 C-37.67 23.34 -37.34 22.68 -37 22 C-36.01 21.67 -35.02 21.34 -34 21 C-34.99 21 -35.98 21 -37 21 C-36.67 19.35 -36.34 17.7 -36 16 C-35.071875 15.71125 -34.14375 15.4225 -33.1875 15.125 C-29.90208333 14.1125 -29.90208333 14.1125 -27 12 C-23.625 11.5625 -23.625 11.5625 -20 12 C-16.75115506 14.59907595 -14.57260188 17.13997719 -13 21 C-14.65 20.67 -16.3 20.34 -18 20 C-18 20.99 -18 21.98 -18 23 C-16.453125 22.7525 -16.453125 22.7525 -14.875 22.5 C-11.51755674 22.06678152 -8.37663843 21.91764297 -5 22 C-5 22.66 -5 23.32 -5 24 C-4.21625 23.79375 -3.4325 23.5875 -2.625 23.375 C-1.75875 23.25125 -0.8925 23.1275 0 23 C0.99 23.99 0.99 23.99 2 25 C2.45375 24.505 2.9075 24.01 3.375 23.5 C5 22 5 22 7 22 C6.67 24.31 6.34 26.62 6 29 C7.47075246 24.58774263 8.36884358 21.51718381 7 17 C5.53984709 17.28241641 4.08190207 17.57626614 2.625 17.875 C1.81289063 18.03742188 1.00078125 18.19984375 0.1640625 18.3671875 C-2.18673923 18.86658932 -2.18673923 18.86658932 -4 21 C-3.6875 19.125 -3.6875 19.125 -3 17 C-0.08235 15.0549 1.62537285 14.54723683 5 14 C4.55527344 13.24074219 4.11054688 12.48148438 3.65234375 11.69921875 C3.08644531 10.70535156 2.52054687 9.71148437 1.9375 8.6875 C1.36902344 7.70136719 0.80054688 6.71523437 0.21484375 5.69921875 C-1 3 -1 3 0 0 Z " fill="#030303" transform="translate(297,214)"/>
<path d="M0 0 C3.16578422 -0.59358454 5.84800011 -0.73075732 9 0 C13.12059655 3.38851087 16.05846766 7.5877015 19 12 C19.845625 12.309375 20.69125 12.61875 21.5625 12.9375 C24 14 24 14 24.8125 16 C25 18 25 18 25 20 C25.495 20.66 25.99 21.32 26.5 22 C28 24 28 24 28 26 C28.91910156 25.67257813 29.83820313 25.34515625 30.78515625 25.0078125 C35.94760805 23.53282627 41.11212732 23.78491562 46.4375 23.875 C47.96407227 23.88853516 47.96407227 23.88853516 49.52148438 23.90234375 C52.01457156 23.92575302 54.50715859 23.958543 57 24 C57 25.32 57 26.64 57 28 C52.38625305 30.08505872 47.8556214 31.88720265 42.87890625 32.875 C35.32944806 33.9821688 35.32944806 33.9821688 29.30859375 38.03125 C28.33611912 40.45228601 28.33611912 40.45228601 28 44 C28.66 44 29.32 44 30 44 C29.67 45.65 29.34 47.3 29 49 C28.01 49 27.02 49 26 49 C25.82984375 49.6290625 25.6596875 50.258125 25.484375 50.90625 C21.8923784 63.59287629 21.8923784 63.59287629 19 67 C16.08736887 68.4966288 13.20007051 69.34357528 10 70 C10.58839799 64.77881324 11.79627935 60.18750198 13.5625 55.25 C15.39804078 50.25639697 15.39804078 50.25639697 16 45 C16.66 45 17.32 45 18 45 C18.33 42.69 18.66 40.38 19 38 C17.94683594 38.144375 16.89367187 38.28875 15.80859375 38.4375 C6.13142687 39.7034183 -3.23894701 40.25574811 -13 40 C-14.38683699 44.15234959 -14.38683699 44.15234959 -15.75 48.3125 C-17 50 -17 50 -20.125 50.75 C-21.07375 50.8325 -22.0225 50.915 -23 51 C-22.49287967 47.28111761 -21.88391785 44.26545761 -20 41 C-20.53753906 40.92265625 -21.07507813 40.8453125 -21.62890625 40.765625 C-24.9072093 39.70706257 -27.18077626 37.80817199 -29.9375 35.75 C-36.2243264 31.21669716 -42.61276741 28.39858302 -50 26 C-51.216875 25.566875 -52.43375 25.13375 -53.6875 24.6875 C-58.15230513 23.76084233 -62.45811262 23.83550508 -67 24 C-65.88625 24.103125 -64.7725 24.20625 -63.625 24.3125 C-62.42875 24.539375 -61.2325 24.76625 -60 25 C-59.01 26.485 -59.01 26.485 -58 28 C-56.515 28.495 -56.515 28.495 -55 29 C-54.3162955 30.32467746 -53.65035814 31.65863633 -53 33 C-51.515 33.99 -51.515 33.99 -50 35 C-50.804375 35.4125 -51.60875 35.825 -52.4375 36.25 C-55.14973801 37.71418298 -55.14973801 37.71418298 -55.66015625 40.109375 C-55.82837891 41.04523438 -55.82837891 41.04523438 -56 42 C-57.05058594 42.25394531 -58.10117188 42.50789063 -59.18359375 42.76953125 C-66.56859029 44.5735804 -73.83240636 46.44014513 -81 49 C-81 47.02 -81 45.04 -81 43 C-80.34 43 -79.68 43 -79 43 C-79.33 42.01 -79.66 41.02 -80 40 C-79.34 40 -78.68 40 -78 40 C-78.22860058 38.53815942 -78.48370392 37.08044581 -78.75 35.625 C-78.88921875 34.81289062 -79.0284375 34.00078125 -79.171875 33.1640625 C-79.81749261 30.82290908 -79.81749261 30.82290908 -82.078125 29.7109375 C-82.71234375 29.47632813 -83.3465625 29.24171875 -84 29 C-84 28.01 -84 27.02 -84 26 C-86.31 26.33 -88.62 26.66 -91 27 C-90.71125 27.74765625 -90.4225 28.4953125 -90.125 29.265625 C-89.75375 30.25046875 -89.3825 31.2353125 -89 32.25 C-88.62875 33.22453125 -88.2575 34.1990625 -87.875 35.203125 C-87 38 -87 38 -87 42 C-87.66 42 -88.32 42 -89 42 C-89 42.66 -89 43.32 -89 44 C-89.99 43.67 -90.98 43.34 -92 43 C-91.67 40.36 -91.34 37.72 -91 35 C-92.65 34.67 -94.3 34.34 -96 34 C-96.45375 34.825 -96.9075 35.65 -97.375 36.5 C-97.91125 37.325 -98.4475 38.15 -99 39 C-99.66 39 -100.32 39 -101 39 C-101.66 38.34 -102.32 37.68 -103 37 C-103.99 37.66 -104.98 38.32 -106 39 C-105.39009109 42.55780196 -104.4216319 45.6828589 -103 49 C-101.03243548 48.96877057 -101.03243548 48.96877057 -99 48 C-97.6954344 45.00384054 -97.6954344 45.00384054 -97 42 C-95.68 42.66 -94.36 43.32 -93 44 C-93 45.32 -93 46.64 -93 48 C-92.01 48 -91.02 48 -90 48 C-90 49.98 -90 51.96 -90 54 C-90.9178125 54.44730469 -91.835625 54.89460938 -92.78125 55.35546875 C-99.40908656 58.61161237 -105.82593333 61.925116 -112 66 C-112.495 65.01 -112.495 65.01 -113 64 C-115.32156597 63.59270772 -117.6568787 63.25561323 -120 63 C-120.33 64.65 -120.66 66.3 -121 68 C-119.68 68 -118.36 68 -117 68 C-117.66 69.65 -118.32 71.3 -119 73 C-121 73 -121 73 -123.625 70.5 C-124.800625 69.2625 -124.800625 69.2625 -126 68 C-129.3640607 71.3640607 -128.85104545 76.12583444 -129.33984375 80.71484375 C-129.99466796 83.97346598 -130.38446207 85.06863548 -133 87 C-134.05264987 72.40910323 -128.65672614 57.79856124 -119.86328125 46.17578125 C-117.66549272 43.67114615 -115.38797599 41.32310737 -113 39 C-112.31292969 38.29230469 -111.62585938 37.58460938 -110.91796875 36.85546875 C-99.39369427 25.67328776 -82.74385871 19.69717395 -66.8125 19.5625 C-56.28104202 19.76495549 -47.54921658 22.5432951 -38.0625 26.875 C-36.97884155 27.36613281 -36.97884155 27.36613281 -35.87329102 27.8671875 C-31.42221416 29.99879171 -28.38903132 32.33395221 -25 36 C-23.68 36.99 -22.36 37.98 -21 39 C-22.65 35.7 -24.3 32.4 -26 29 C-22.8125 28.625 -22.8125 28.625 -19 29 C-16.8596502 30.81188028 -15.61011698 32.65801167 -14 35 C-3.83738422 32.82608393 6.05977203 30.01182955 16 27 C15.01 24.03 15.01 24.03 14 21 C13.01 21 12.02 21 11 21 C10.88213135 20.41428223 10.7642627 19.82856445 10.64282227 19.22509766 C9.96870379 16.89166971 9.09625734 15.38433724 7.71484375 13.3984375 C7.26689453 12.74359375 6.81894531 12.08875 6.35742188 11.4140625 C5.88884766 10.74117187 5.42027344 10.06828125 4.9375 9.375 C0 2.26176671 0 2.26176671 0 0 Z " fill="#070707" transform="translate(311,166)"/>
<path d="M0 0 C0 0.99 0 1.98 0 3 C0.639375 3.144375 1.27875 3.28875 1.9375 3.4375 C4 4 4 4 5 5 C5.25996373 6.45001991 5.45919978 7.91122093 5.625 9.375 C5.72039062 10.16648438 5.81578125 10.95796875 5.9140625 11.7734375 C6 14 6 14 5 17 C4.34 17 3.68 17 3 17 C3.495 19.475 3.495 19.475 4 22 C5.00160156 21.65066406 6.00320312 21.30132812 7.03515625 20.94140625 C8.37749252 20.48144487 9.7199468 20.02182781 11.0625 19.5625 C11.71927734 19.33240234 12.37605469 19.10230469 13.05273438 18.86523438 C18.78401982 16.91716198 24.01815836 15.41873448 30 17 C32.65702015 16.68373327 32.65702015 16.68373327 35.5 16.0625 C41.72109479 14.92094443 47.69260627 14.7987002 54 15 C54 15.33 54 15.66 54 16 C53.29206299 16.13986328 52.58412598 16.27972656 51.85473633 16.42382812 C24.49283402 21.92228648 -2.72250833 30.44928239 -25 48 C-25.82242188 48.62261719 -26.64484375 49.24523437 -27.4921875 49.88671875 C-39.23044846 58.96692365 -51.88491106 70.54274662 -54.3125 85.98828125 C-54.65353618 91.47683223 -52.72215006 95.3428276 -50 100 C-49.67 100.66 -49.34 101.32 -49 102 C-53.25373737 100.48080808 -54.83588994 97.85873344 -57 94 C-58.29686291 85.33199715 -57.48649362 77.53306531 -53 70 C-52.42765625 68.96166016 -52.42765625 68.96166016 -51.84375 67.90234375 C-50.9249063 66.25170668 -49.96687522 64.62296913 -49 63 C-49.33 62.67 -49.66 62.34 -50 62 C-50.04063832 60.33382885 -50.042721 58.66611905 -50 57 C-49.34 57.66 -48.68 58.32 -48 59 C-45.564622 56.564622 -46.06856945 50.62533317 -45.6953125 47.3203125 C-45.01163584 44.05556439 -44.62475613 42.93629551 -42 41 C-40.2925002 42.28062485 -38.62626404 43.61767557 -37 45 C-37 45.66 -37 46.32 -37 47 C-36.01 46.01 -35.02 45.02 -34 44 C-35.32 43.34 -36.64 42.68 -38 42 C-37.67 40.35 -37.34 38.7 -37 37 C-33.35014884 35.64820327 -31.47171347 36.44686503 -28 38 C-24.61515206 38 -21.92172315 35.79601212 -19.0625 34.125 C-18.42892578 33.76019531 -17.79535156 33.39539063 -17.14257812 33.01953125 C-14.37173947 31.41704833 -11.66406143 29.77604095 -9 28 C-8.01 28 -7.02 28 -6 28 C-6 26.02 -6 24.04 -6 22 C-6.99 22 -7.98 22 -9 22 C-9.66 20.35 -10.32 18.7 -11 17 C-11.66 17 -12.32 17 -13 17 C-13.2475 17.804375 -13.495 18.60875 -13.75 19.4375 C-15 22 -15 22 -17.125 22.8125 C-17.74375 22.874375 -18.3625 22.93625 -19 23 C-23 17.78787879 -23 17.78787879 -23 14.25 C-22 12 -22 12 -19.9375 10.6875 C-19.298125 10.460625 -18.65875 10.23375 -18 10 C-17.505 11.485 -17.505 11.485 -17 13 C-14.9754262 11.06745228 -13.57894208 9.36841312 -12 7 C-9.525 7.99 -9.525 7.99 -7 9 C-7 11.64 -7 14.28 -7 17 C-6.34 17.33 -5.68 17.66 -5 18 C-5 17.34 -5 16.68 -5 16 C-4.34 16 -3.68 16 -3 16 C-3.433125 14.62714844 -3.433125 14.62714844 -3.875 13.2265625 C-4.24625 12.03804687 -4.6175 10.84953125 -5 9.625 C-5.37125 8.44164062 -5.7425 7.25828125 -6.125 6.0390625 C-7 3 -7 3 -7 1 C-4 0 -4 0 0 0 Z " fill="#F2F2F2" transform="translate(227,192)"/>
<path d="M0 0 C5.23960768 1.38695497 7.97257638 4.72272259 11 9 C11.69313908 10.65583225 12.36474424 12.32110979 13 14 C15.02040748 16.27191416 15.02040748 16.27191416 17 18 C15.42800663 21.85852918 13.17110109 24.32218131 10 27 C7.69011685 27.74386068 5.35684056 28.42190703 3 29 C2.34 29.66 1.68 30.32 1 31 C-0.85483454 31.60713803 -2.73421385 32.14131052 -4.625 32.625 C-6.12933594 33.01558594 -6.12933594 33.01558594 -7.6640625 33.4140625 C-8.82035156 33.70410156 -8.82035156 33.70410156 -10 34 C-10.75649032 35.77905424 -10.75649032 35.77905424 -11 38 C-9.41795351 41.27114876 -7.1651367 44.08932094 -5 47 C-4.29875 47.99 -3.5975 48.98 -2.875 50 C6.88614779 61.2315771 22.19234298 68.9185899 36.99511719 70.16845703 C53.10381657 71.0543243 69.90221564 67.93268914 82.37890625 57.0390625 C82.91386719 56.69617188 83.44882812 56.35328125 84 56 C85.485 56.495 85.485 56.495 87 57 C78.58730657 66.53438589 65.88382868 72.04547573 53.3203125 73.25878906 C34.09310901 74.31735047 15.82184523 70.83926475 0.91259766 57.91625977 C-9.02752064 48.76055537 -16.15721168 38.07266307 -20 25 C-20.125 21.625 -20.125 21.625 -20 19 C-19.34 19 -18.68 19 -18 19 C-16.80712589 22.87684087 -16 25.91621923 -16 30 C-15.34 30 -14.68 30 -14 30 C-13.62875 29.195625 -13.62875 29.195625 -13.25 28.375 C-12 26 -12 26 -9.875 23.5625 C-7.53431388 20.26196418 -7.98801298 17.5013393 -8.25 13.5625 C-8.49273886 7.66933995 -8.49273886 7.66933995 -6.234375 4.6015625 C-4.22978439 2.88434327 -2.24793504 1.37987084 0 0 Z " fill="#060606" transform="translate(200,245)"/>
<path d="M0 0 C1.05058594 0.00902344 2.10117187 0.01804688 3.18359375 0.02734375 C3.96863281 0.03894531 4.75367188 0.05054688 5.5625 0.0625 C5.5625 0.3925 5.5625 0.7225 5.5625 1.0625 C4.85456299 1.20236328 4.14662598 1.34222656 3.41723633 1.48632812 C-23.94466598 6.98478648 -51.16000833 15.51178239 -73.4375 33.0625 C-74.25992188 33.68511719 -75.08234375 34.30773437 -75.9296875 34.94921875 C-87.66794846 44.02942365 -100.32241106 55.60524662 -102.75 71.05078125 C-103.09103618 76.53933223 -101.15965006 80.4053276 -98.4375 85.0625 C-98.1075 85.7225 -97.7775 86.3825 -97.4375 87.0625 C-101.69123737 85.54330808 -103.27338994 82.92123344 -105.4375 79.0625 C-106.72605761 70.45000835 -106.02289326 62.50483611 -101.4375 55.0625 C-101.01339844 54.33933594 -100.58929688 53.61617188 -100.15234375 52.87109375 C-82.54307261 24.66682939 -49.21021098 9.60528402 -18.0390625 2.078125 C-12.00281361 0.69751005 -6.20185776 -0.0696838 0 0 Z " fill="#0D0D0D" transform="translate(275.4375,206.9375)"/>
<path d="M0 0 C0.66 0 1.32 0 2 0 C1.71190255 1.66728734 1.41930221 3.3337967 1.125 5 C0.96257812 5.928125 0.80015625 6.85625 0.6328125 7.8125 C0.16540615 10.16684308 -0.40231644 12.50177662 -1.0234375 14.8203125 C-7.04949473 38.59758976 -1.05594185 63.76035233 10.8515625 84.61328125 C13.9176181 89.65766597 17.81982022 93.86016944 22 98 C22.845625 98.886875 23.69125 99.77375 24.5625 100.6875 C25.7690625 101.8321875 25.7690625 101.8321875 27 103 C27.78503906 103.77730469 27.78503906 103.77730469 28.5859375 104.5703125 C35.65927961 111.22582006 44.31526882 115.76511871 53 120 C53 120.99 53 121.98 53 123 C37.80993714 120.90286446 21.88022435 105.65757846 13 94 C6.65417187 85.12456341 1.95888723 76.16330723 -2 66 C-2.34933594 65.1853125 -2.69867188 64.370625 -3.05859375 63.53125 C-9.71876116 45.62341397 -8.93367086 23.93992796 -3 6 C-2.04580561 3.97774555 -1.0603006 1.96869567 0 0 Z " fill="#1E1E1E" transform="translate(155,214)"/>
<path d="M0 0 C2.97 0.33 5.94 0.66 9 1 C9.66 4.3 10.32 7.6 11 11 C12.32 8.03 13.64 5.06 15 2 C17.64 2 20.28 2 23 2 C23 9.92 23 17.84 23 26 C21.02 26 19.04 26 17 26 C16.67 22.37 16.34 18.74 16 15 C14.68 17.31 13.36 19.62 12 22 C10.02 22 8.04 22 6 22 C5.855625 20.865625 5.71125 19.73125 5.5625 18.5625 C5.38828522 15.19222799 5.38828522 15.19222799 4 14 C3.34 17.3 2.68 20.6 2 24 C0.02 23.67 -1.96 23.34 -4 23 C-3.32545897 15.1753241 -1.73123042 7.65443386 0 0 Z " fill="#FF3A3A" transform="translate(213,327)"/>
<path d="M0 0 C1.9375 1.6875 1.9375 1.6875 3 4 C3.1875 7.25 3.1875 7.25 3 10 C5.31 10.33 7.62 10.66 10 11 C10.33 11.99 10.66 12.98 11 14 C9.5625 16.1875 9.5625 16.1875 8 18 C4.87709365 17.51421457 2.00419641 17.0013988 -1 16 C-0.67 16.598125 -0.34 17.19625 0 17.8125 C1 20 1 20 1 23 C-0.5 24.6875 -0.5 24.6875 -2 26 C-5.96155879 24.45688712 -7.93971996 21.96708452 -10.5625 18.6875 C-11.70912109 17.27017578 -11.70912109 17.27017578 -12.87890625 15.82421875 C-14.78095598 13.2916553 -16.43282878 10.74880831 -18 8 C-16.54405245 6.68485396 -15.08516421 5.37296283 -13.625 4.0625 C-12.81289062 3.33160156 -12.00078125 2.60070312 -11.1640625 1.84765625 C-7.23495651 -1.50697757 -5.01082189 -1.14281903 0 0 Z " fill="#FF3A3A" transform="translate(181,171)"/>
<path d="M0 0 C1.18847656 1.71826172 1.18847656 1.71826172 2.140625 3.9296875 C2.48867188 4.72503906 2.83671875 5.52039063 3.1953125 6.33984375 C3.54335938 7.17644531 3.89140625 8.01304687 4.25 8.875 C4.61351562 9.70386719 4.97703125 10.53273438 5.3515625 11.38671875 C8 17.54981203 8 17.54981203 8 21 C5.69 21.33 3.38 21.66 1 22 C1 21.01 1 20.02 1 19 C-1.31 19 -3.62 19 -6 19 C-6 20.65 -6 22.3 -6 24 C-8.31 24 -10.62 24 -13 24 C-12.45423097 15.89963866 -11.45852964 7.98651182 -10 0 C-3.38147817 -1.35378856 -3.38147817 -1.35378856 0 0 Z " fill="#FF3A3A" transform="translate(259,328)"/>
<path d="M0 0 C2.77630908 1.89601596 4.55916735 4.16458825 6.64453125 6.796875 C7.40894531 7.75335938 8.17335937 8.70984375 8.9609375 9.6953125 C9.66089844 10.59507812 10.36085937 11.49484375 11.08203125 12.421875 C11.66855469 13.15664062 12.25507813 13.89140625 12.859375 14.6484375 C14.08203125 16.421875 14.08203125 16.421875 14.08203125 18.421875 C11.43464209 19.8825035 10.18754791 20.421875 7.08203125 20.421875 C6.42203125 19.761875 5.76203125 19.101875 5.08203125 18.421875 C2.47922557 18.74228897 2.47922557 18.74228897 0.08203125 19.421875 C0.41203125 21.071875 0.74203125 22.721875 1.08203125 24.421875 C-1.56535791 25.8825035 -2.81245209 26.421875 -5.91796875 26.421875 C-7.10193758 18.39837196 -8.20342303 10.55732186 -7.91796875 2.421875 C-2.52923548 -0.76237648 -2.52923548 -0.76237648 0 0 Z " fill="#FF4242" transform="translate(201.91796875,155.578125)"/>
<path d="M0 0 C5.28 0.33 10.56 0.66 16 1 C17 5 17 5 16 7 C13.03 7 10.06 7 7 7 C7 7.99 7 8.98 7 10 C9.31 10 11.62 10 14 10 C13.67 11.98 13.34 13.96 13 16 C10.36 15.67 7.72 15.34 5 15 C5 16.32 5 17.64 5 19 C8.3 19 11.6 19 15 19 C14.67 20.98 14.34 22.96 14 25 C8.72 24.34 3.44 23.68 -2 23 C-1.85865273 20.10388456 -1.7120847 17.2081919 -1.5625 14.3125 C-1.52318359 13.49587891 -1.48386719 12.67925781 -1.44335938 11.83789062 C-1.40146484 11.04189453 -1.35957031 10.24589844 -1.31640625 9.42578125 C-1.27974854 8.69786377 -1.24309082 7.96994629 -1.20532227 7.2199707 C-0.98061224 4.79037706 -0.47851613 2.39258065 0 0 Z " fill="#FF3C3C" transform="translate(251,146)"/>
<path d="M0 0 C0.33 1.65 0.66 3.3 1 5 C-0.98 6.32 -2.96 7.64 -5 9 C-4.67 9.66 -4.34 10.32 -4 11 C-2.02 10.01 -0.04 9.02 2 8 C2.66 9.65 3.32 11.3 4 13 C3.360625 13.433125 2.72125 13.86625 2.0625 14.3125 C-0.26746003 15.91239177 -0.26746003 15.91239177 -1 19 C0.60875 17.9790625 0.60875 17.9790625 2.25 16.9375 C5.66157733 14.96528998 5.66157733 14.96528998 8.4375 15.25 C8.953125 15.4975 9.46875 15.745 10 16 C10.33 17.32 10.66 18.64 11 20 C6.71 22.64 2.42 25.28 -2 28 C-5.27011132 24.72988868 -7.67616365 21.31713019 -10.25 17.5 C-10.72179687 16.82324219 -11.19359375 16.14648438 -11.6796875 15.44921875 C-12.86916758 13.68586669 -13.94380014 11.84627062 -15 10 C-13.70019417 6.10058251 -12.06745898 5.46742511 -8.625 3.3125 C-7.64789063 2.68988281 -6.67078125 2.06726563 -5.6640625 1.42578125 C-3 0 -3 0 0 0 Z " fill="#FF3939" transform="translate(305,307)"/>
<path d="M0 0 C-0.44782693 8.17873393 -1.18344401 16.00715364 -3 24 C-5.97 24.33 -8.94 24.66 -12 25 C-12.48210937 23.96359375 -12.96421875 22.9271875 -13.4609375 21.859375 C-14.09892902 20.48956968 -14.73695148 19.11977877 -15.375 17.75 C-15.69210938 17.06808594 -16.00921875 16.38617188 -16.3359375 15.68359375 C-16.6453125 15.01972656 -16.9546875 14.35585937 -17.2734375 13.671875 C-17.57217773 13.02927734 -17.87091797 12.38667969 -18.17871094 11.72460938 C-18.82548616 10.36645831 -19.517958 9.03006591 -20.2265625 7.703125 C-21 6 -21 6 -21 3 C-17.535 2.505 -17.535 2.505 -14 2 C-12.35 6.29 -10.7 10.58 -9 15 C-7.64908472 12.29816945 -7.66141942 9.88191794 -7.4375 6.875 C-7.35371094 5.77929688 -7.26992187 4.68359375 -7.18359375 3.5546875 C-7.12300781 2.71164063 -7.06242188 1.86859375 -7 1 C-4 0 -4 0 0 0 Z " fill="#FF3D3D" transform="translate(239,146)"/>
<path d="M0 0 C3.6677889 1.4719416 5.22764526 3.37821343 7.5 6.5625 C17.15024768 18.95205732 31.54308856 26.68684272 47 29 C62.8520359 30.33846118 79.75871818 27.71353741 92.5625 17.625 C93.16191406 17.10164063 93.76132812 16.57828125 94.37890625 16.0390625 C95.18134766 15.52472656 95.18134766 15.52472656 96 15 C96.99 15.33 97.98 15.66 99 16 C90.58730657 25.53438589 77.88382868 31.04547573 65.3203125 32.25878906 C46.0966893 33.31715336 27.8141724 29.8422729 12.91113281 16.91381836 C8.09771288 12.48366661 3.26706654 7.71736645 0 2 C0 1.34 0 0.68 0 0 Z " fill="#141414" transform="translate(188,286)"/>
<path d="M0 0 C0.33 1.65 0.66 3.3 1 5 C-0.32 5.33 -1.64 5.66 -3 6 C-1.02 11.61 0.96 17.22 3 23 C-1 25 -1 25 -4 25 C-5.98 20.05 -7.96 15.1 -10 10 C-11.98 10.33 -13.96 10.66 -16 11 C-16.33 9.35 -16.66 7.7 -17 6 C-5.26213592 0 -5.26213592 0 0 0 Z " fill="#FF3A3A" transform="translate(285,319)"/>
<path d="M0 0 C1.32 0.66 2.64 1.32 4 2 C3.67 3.98 3.34 5.96 3 8 C9.435 12.455 9.435 12.455 16 17 C13 22 13 22 11 23 C10.15695313 22.3503125 9.31390625 21.700625 8.4453125 21.03125 C7.33873319 20.18724883 6.23195185 19.34351251 5.125 18.5 C4.56941406 18.07074219 4.01382813 17.64148438 3.44140625 17.19921875 C0.54655286 14.77124815 0.54655286 14.77124815 -3 14 C-3.99 15.485 -3.99 15.485 -5 17 C-8.875 15.25 -8.875 15.25 -10 13 C-8.5217985 11.02010587 -7.0424882 9.04105782 -5.5625 7.0625 C-5.14162109 6.49853516 -4.72074219 5.93457031 -4.28710938 5.35351562 C-1.11328125 1.11328125 -1.11328125 1.11328125 0 0 Z " fill="#FF3939" transform="translate(154,189)"/>
<path d="M0 0 C1.32 0 2.64 0 4 0 C4.7597239 21.15971741 0.64462998 45.50161939 -14 62 C-14.99 62 -15.98 62 -17 62 C-15.70199305 58.47208367 -14.07712132 55.2599113 -12.23266602 51.98754883 C-6.33681072 41.48077938 -1.15759048 29.76661228 -0.68359375 17.578125 C-0.64169922 16.55332031 -0.59980469 15.52851563 -0.55664062 14.47265625 C-0.51732422 13.40917969 -0.47800781 12.34570312 -0.4375 11.25 C-0.39431641 10.17105469 -0.35113281 9.09210938 -0.30664062 7.98046875 C-0.20071011 5.32043572 -0.09863579 2.66031188 0 0 Z " fill="#292929" transform="translate(336,243)"/>
<path d="M0 0 C2.97 0.495 2.97 0.495 6 1 C7.35814777 5.0744433 5.94745762 7.81468116 4.5625 11.6875 C4.31951172 12.38939453 4.07652344 13.09128906 3.82617188 13.81445312 C3.2255056 15.54578532 2.61380281 17.27328137 2 19 C3.98 19.33 5.96 19.66 8 20 C7.67 21.65 7.34 23.3 7 25 C3.22134307 26.25955231 1.96588214 25.48087189 -1.6875 24.0625 C-2.68136719 23.68222656 -3.67523438 23.30195313 -4.69921875 22.91015625 C-5.45847656 22.60980469 -6.21773438 22.30945313 -7 22 C-5.0827282 14.49068545 -2.75950985 7.24196241 0 0 Z " fill="#FF3C3C" transform="translate(279,151)"/>
<path d="M0 0 C13.63389832 -0.46715134 24.41857095 1.15876448 36.9375 6.875 C37.65993896 7.20242187 38.38237793 7.52984375 39.12670898 7.8671875 C43.56309107 9.99175444 46.66878331 12.29132531 50 16 C51.3921875 17.3921875 51.3921875 17.3921875 52.8125 18.8125 C53.534375 19.534375 54.25625 20.25625 55 21 C50.89947253 20.40999605 48.32808811 18.18809051 45.0625 15.75 C38.77423563 11.21566027 32.386373 8.40486563 25 6 C23.824375 5.566875 22.64875 5.13375 21.4375 4.6875 C16.30036569 3.66007314 11.22026701 3.84570639 6 4 C6 3.34 6 2.68 6 2 C3.03 1.505 3.03 1.505 0 1 C0 0.67 0 0.34 0 0 Z " fill="#1C1C1C" transform="translate(236,186)"/>
<path d="M0 0 C0.99 0.33 1.98 0.66 3 1 C-5.25056186 10.35063677 -16.293123 13.90916565 -28 17 C-28.66 17 -29.32 17 -30 17 C-30 16.34 -30 15.68 -30 15 C-30.66 14.67 -31.32 14.34 -32 14 C-31.27296875 13.84144531 -30.5459375 13.68289063 -29.796875 13.51953125 C-19.42582284 11.1129153 -9.75494134 8.14087352 -1.62109375 1.0390625 C-1.08613281 0.69617188 -0.55117188 0.35328125 0 0 Z " fill="#1D1D1D" transform="translate(284,301)"/>
<path d="M0 0 C3.50553578 3.11011743 5.27275191 6.17976967 7.1875 10.4375 C7.95126953 12.10619141 7.95126953 12.10619141 8.73046875 13.80859375 C9.83323572 16.58078027 10.54440318 19.06332169 11 22 C10.01 22 9.02 22 8 22 C7.67 20.35 7.34 18.7 7 17 C5.53984709 17.28241641 4.08190207 17.57626614 2.625 17.875 C1.40683594 18.11863281 1.40683594 18.11863281 0.1640625 18.3671875 C-2.18673923 18.86658932 -2.18673923 18.86658932 -4 21 C-3.6875 19.125 -3.6875 19.125 -3 17 C-0.08235 15.0549 1.62537285 14.54723683 5 14 C4.55527344 13.24074219 4.11054688 12.48148438 3.65234375 11.69921875 C3.08644531 10.70535156 2.52054687 9.71148437 1.9375 8.6875 C1.36902344 7.70136719 0.80054688 6.71523437 0.21484375 5.69921875 C-1 3 -1 3 0 0 Z " fill="#242424" transform="translate(297,214)"/>
<path d="M0 0 C2.2 6.23333333 2.2 6.23333333 1.25 9.875 C0 12 0 12 -2 13 C-1.34 10.36 -0.68 7.72 0 5 C-1.65 6.32 -3.3 7.64 -5 9 C-5.99 8.34 -6.98 7.68 -8 7 C-10.11280345 6.36707617 -10.11280345 6.36707617 -12 6 C-11.34 5.67 -10.68 5.34 -10 5 C-9.835 4.34 -9.67 3.68 -9.5 3 C-9.335 2.34 -9.17 1.68 -9 1 C-6.04335481 -0.4783226 -3.25770263 -0.06032783 0 0 Z " fill="#DFDFDF" transform="translate(304,231)"/>
<path d="M0 0 C0.6953125 1.59765625 0.6953125 1.59765625 1 4 C-0.2578125 7.05859375 -0.2578125 7.05859375 -2.125 10.4375 C-3.02605469 12.10619141 -3.02605469 12.10619141 -3.9453125 13.80859375 C-6.00312489 17.00485369 -8.21797611 19.42494328 -11 22 C-11 18.16005986 -10.79975894 17.11825537 -9.1015625 13.92578125 C-8.70453125 13.17619141 -8.3075 12.42660156 -7.8984375 11.65429688 C-7.47820312 10.88150391 -7.05796875 10.10871094 -6.625 9.3125 C-6.2125 8.52810547 -5.8 7.74371094 -5.375 6.93554688 C-2.26544975 1.13272487 -2.26544975 1.13272487 0 0 Z " fill="#161616" transform="translate(331,284)"/>
<path d="M0 0 C0 0.33 0 0.66 0 1 C-1.09699219 1.26554688 -2.19398438 1.53109375 -3.32421875 1.8046875 C-4.77869247 2.16126815 -6.23311698 2.5180496 -7.6875 2.875 C-8.7693457 3.13603516 -8.7693457 3.13603516 -9.87304688 3.40234375 C-12.98081846 4.16864359 -15.89905551 4.95940276 -18.875 6.15625 C-21.36953736 7.14672807 -22.52256156 6.91756979 -25 6 C-24 4 -24 4 -20.796875 2.74609375 C-19.45043939 2.30216993 -18.1013249 1.86631025 -16.75 1.4375 C-16.08097656 1.21642578 -15.41195312 0.99535156 -14.72265625 0.76757812 C-4.20983602 -2.65063749 -4.20983602 -2.65063749 0 0 Z " fill="#E5E5E5" transform="translate(255,210)"/>
<path d="M0 0 C0.66 0.33 1.32 0.66 2 1 C1.01 2.485 1.01 2.485 0 4 C-0.58000106 7.57452503 -0.95356911 11.14977039 -1.33984375 14.75 C-1.9971147 17.98579543 -2.40386489 19.07588896 -5 21 C-5.22081501 14.32647966 -5.1949258 8.35373257 -3 2 C-2.01 1.34 -1.02 0.68 0 0 Z " fill="#212121" transform="translate(183,232)"/>
<path d="M0 0 C7.92 0.33 15.84 0.66 24 1 C24 1.66 24 2.32 24 3 C20.75001888 3.02909763 17.50007143 3.04683161 14.25 3.0625 C13.32960937 3.07087891 12.40921875 3.07925781 11.4609375 3.08789062 C10.57148438 3.09111328 9.68203125 3.09433594 8.765625 3.09765625 C7.94868164 3.10289307 7.13173828 3.10812988 6.29003906 3.11352539 C4.06031865 3.00299021 2.13866245 2.62055567 0 2 C0 1.34 0 0.68 0 0 Z " fill="#060606" transform="translate(230,315)"/>
<path d="M0 0 C0 0.66 0 1.32 0 2 C-2.62394306 2.83679277 -5.24904384 3.66956942 -7.875 4.5 C-8.62136719 4.73847656 -9.36773437 4.97695313 -10.13671875 5.22265625 C-15.7734375 7 -15.7734375 7 -18 7 C-18 6.34 -18 5.68 -18 5 C-18.66 4.67 -19.32 4.34 -20 4 C-19.20335937 3.80664062 -18.40671875 3.61328125 -17.5859375 3.4140625 C-10.92263 1.7831966 -10.92263 1.7831966 -4.375 -0.25 C-2 -1 -2 -1 0 0 Z " fill="#1B1B1B" transform="translate(272,311)"/>
<path d="M0 0 C0 0.33 0 0.66 0 1 C-2.93666226 1.67055285 -5.87422359 2.33659053 -8.8125 3 C-9.64587891 3.19078125 -10.47925781 3.3815625 -11.33789062 3.578125 C-12.14033203 3.75859375 -12.94277344 3.9390625 -13.76953125 4.125 C-14.50792236 4.29257813 -15.24631348 4.46015625 -16.00708008 4.6328125 C-18 5 -18 5 -21 5 C-21 4.34 -21 3.68 -21 3 C-21.99 2.67 -22.98 2.34 -24 2 C-15.91191011 0.39385449 -8.2425317 -0.26305952 0 0 Z " fill="#3E3E3E" transform="translate(281,207)"/>
<path d="M0 0 C16.8929385 -0.3690205 16.8929385 -0.3690205 24 2 C24 2.66 24 3.32 24 4 C18.06 4 12.12 4 6 4 C6 3.34 6 2.68 6 2 C3.03 1.505 3.03 1.505 0 1 C0 0.67 0 0.34 0 0 Z " fill="#3A3A3A" transform="translate(236,186)"/>
<path d="M0 0 C5.28 1.32 10.56 2.64 16 4 C15.01 4.495 15.01 4.495 14 5 C14 5.66 14 6.32 14 7 C8.8896856 5.8545847 4.62765919 4.54521255 0 2 C0 1.34 0 0.68 0 0 Z " fill="#212121" transform="translate(216,310)"/>
<path d="M0 0 C0.66 0.33 1.32 0.66 2 1 C2 1.66 2 2.32 2 3 C-1.96 4.98 -5.92 6.96 -10 9 C-10.33 8.01 -10.66 7.02 -11 6 C-9.21385682 4.96953278 -7.42089982 3.95086764 -5.625 2.9375 C-4.62726563 2.36902344 -3.62953125 1.80054688 -2.6015625 1.21484375 C-1.74304688 0.81394531 -0.88453125 0.41304687 0 0 Z " fill="#E3E3E3" transform="translate(218,220)"/>
<path d="M0 0 C1.4589426 0.47730838 2.91713496 0.95691042 4.375 1.4375 C5.18710937 1.70433594 5.99921875 1.97117188 6.8359375 2.24609375 C9 3 9 3 11 4 C10.67 4.99 10.34 5.98 10 7 C6.04 5.68 2.08 4.36 -2 3 C-1.34 2.67 -0.68 2.34 0 2 C0 1.34 0 0.68 0 0 Z " fill="#252525" transform="translate(260,188)"/>
<path d="M0 0 C0.66 0 1.32 0 2 0 C2.99 3.96 3.98 7.92 5 12 C4.01 12 3.02 12 2 12 C0.40861915 7.82262526 -0.21278058 4.46839215 0 0 Z " fill="#1A1A1A" transform="translate(180,264)"/>
<path d="M0 0 C0 0.33 0 0.66 0 1 C-3.3 1.66 -6.6 2.32 -10 3 C-9.67 1.68 -9.34 0.36 -9 -1 C-5.22102349 -2.0497157 -3.35080929 -2.10976881 0 0 Z " fill="#DEDEDE" transform="translate(255,210)"/>
<path d="M0 0 C2.0625 0.4375 2.0625 0.4375 4 1 C4 2.65 4 4.3 4 6 C3.01 6 2.02 6 1 6 C0.34 4.35 -0.32 2.7 -1 1 C-0.67 0.67 -0.34 0.34 0 0 Z " fill="#FFF0F0" transform="translate(173,177)"/>
<path d="M0 0 C1.32 0 2.64 0 4 0 C2.95125002 2.62187494 2.35068687 3.79371361 -0.125 5.25 C-0.74375 5.4975 -1.3625 5.745 -2 6 C-1.125 1.125 -1.125 1.125 0 0 Z " fill="#242424" transform="translate(259,291)"/>
<path d="M0 0 C0.66 0 1.32 0 2 0 C1.45276317 3.37462715 0.9451 5.08235 -1 8 C-1 7.01 -1 6.02 -1 5 C-1.99 4.67 -2.98 4.34 -4 4 C-3.67 3.34 -3.34 2.68 -3 2 C-2.01 2 -1.02 2 0 2 C0 1.34 0 0.68 0 0 Z " fill="#3F3F3F" transform="translate(252,231)"/>
<path d="M0 0 C0 0.66 0 1.32 0 2 C-1.134375 2.12375 -2.26875 2.2475 -3.4375 2.375 C-5.2009375 2.684375 -5.2009375 2.684375 -7 3 C-7.33 3.66 -7.66 4.32 -8 5 C-8 3.68 -8 2.36 -8 1 C-3.375 -1.125 -3.375 -1.125 0 0 Z " fill="#1B1B1B" transform="translate(227,190)"/>
<path d="M0 0 C2.1723491 3.25852365 4.07119658 6.59244728 6 10 C2.66282451 8.6190998 0.77698964 7.1798762 -1 4 C-0.6875 1.75 -0.6875 1.75 0 0 Z " fill="#303030" transform="translate(172,284)"/>
<path d="M0 0 C2.5654594 2.5654594 2.54046087 4.47686668 3 8 C1.68 8 0.36 8 -1 8 C-0.67 5.36 -0.34 2.72 0 0 Z " fill="#FFD5D5" transform="translate(254,334)"/>
<path d="M0 0 C0.33 1.32 0.66 2.64 1 4 C1.66 4 2.32 4 3 4 C2.25 8.75 2.25 8.75 0 11 C0 7.37 0 3.74 0 0 Z " fill="#313131" transform="translate(178,242)"/>
<path d="M0 0 C0.99 0.33 1.98 0.66 3 1 C1.35 2.65 -0.3 4.3 -2 6 C-2.33 5.34 -2.66 4.68 -3 4 C-2.01 2.68 -1.02 1.36 0 0 Z " fill="#161616" transform="translate(284,301)"/>
<path d="M0 0 C0 0.66 0 1.32 0 2 C-1.98 2.33 -3.96 2.66 -6 3 C-6 2.34 -6 1.68 -6 1 C-6.66 0.67 -7.32 0.34 -8 0 C-4.71303767 -0.79953138 -3.28976808 -1.09658936 0 0 Z " fill="#2E2E2E" transform="translate(260,315)"/>
</svg>
